<mxfile host="65bd71144e">
    <diagram id="YGi6M-mCjJR0rosk07FZ" name="페이지-1">
        <mxGraphModel dx="785" dy="563" grid="1" gridSize="10" guides="1" tooltips="1" connect="1" arrows="1" fold="1" page="1" pageScale="1" pageWidth="827" pageHeight="1169" math="0" shadow="0">
            <root>
                <mxCell id="0"/>
                <mxCell id="1" parent="0"/>
                <mxCell id="2" value="비밀번호" style="ellipse;whiteSpace=wrap;html=1;align=center;" parent="1" vertex="1">
                    <mxGeometry x="30" y="150" width="100" height="40" as="geometry"/>
                </mxCell>
                <mxCell id="3" value="아이디" style="ellipse;whiteSpace=wrap;html=1;align=center;fontStyle=4;" parent="1" vertex="1">
                    <mxGeometry x="30" y="100" width="100" height="40" as="geometry"/>
                </mxCell>
                <mxCell id="10" style="edgeStyle=none;html=1;entryX=1;entryY=0.5;entryDx=0;entryDy=0;exitX=0;exitY=0.5;exitDx=0;exitDy=0;endArrow=none;endFill=0;" parent="1" source="4" target="3" edge="1">
                    <mxGeometry relative="1" as="geometry"/>
                </mxCell>
                <mxCell id="4" value="회원" style="whiteSpace=wrap;html=1;align=center;" parent="1" vertex="1">
                    <mxGeometry x="200" y="230" width="100" height="40" as="geometry"/>
                </mxCell>
                <mxCell id="5" value="등급" style="ellipse;whiteSpace=wrap;html=1;align=center;" parent="1" vertex="1">
                    <mxGeometry x="30" y="350" width="100" height="40" as="geometry"/>
                </mxCell>
                <mxCell id="6" value="직업" style="ellipse;whiteSpace=wrap;html=1;align=center;" parent="1" vertex="1">
                    <mxGeometry x="30" y="300" width="100" height="40" as="geometry"/>
                </mxCell>
                <mxCell id="7" value="나이" style="ellipse;whiteSpace=wrap;html=1;align=center;" parent="1" vertex="1">
                    <mxGeometry x="30" y="250" width="100" height="40" as="geometry"/>
                </mxCell>
                <mxCell id="8" value="이름" style="ellipse;whiteSpace=wrap;html=1;align=center;" parent="1" vertex="1">
                    <mxGeometry x="30" y="200" width="100" height="40" as="geometry"/>
                </mxCell>
                <mxCell id="9" value="적립금" style="ellipse;whiteSpace=wrap;html=1;align=center;" parent="1" vertex="1">
                    <mxGeometry x="30" y="400" width="100" height="40" as="geometry"/>
                </mxCell>
                <mxCell id="12" style="edgeStyle=none;html=1;entryX=1;entryY=0.5;entryDx=0;entryDy=0;exitX=0;exitY=0.5;exitDx=0;exitDy=0;endArrow=none;endFill=0;" parent="1" source="4" target="2" edge="1">
                    <mxGeometry relative="1" as="geometry">
                        <mxPoint x="230" y="120" as="sourcePoint"/>
                        <mxPoint x="140" y="130" as="targetPoint"/>
                    </mxGeometry>
                </mxCell>
                <mxCell id="13" style="edgeStyle=none;html=1;entryX=1;entryY=0.5;entryDx=0;entryDy=0;exitX=0;exitY=0.5;exitDx=0;exitDy=0;endArrow=none;endFill=0;" parent="1" source="4" target="8" edge="1">
                    <mxGeometry relative="1" as="geometry">
                        <mxPoint x="230" y="120" as="sourcePoint"/>
                        <mxPoint x="150" y="140" as="targetPoint"/>
                    </mxGeometry>
                </mxCell>
                <mxCell id="14" style="edgeStyle=none;html=1;entryX=1;entryY=0.5;entryDx=0;entryDy=0;exitX=0;exitY=0.5;exitDx=0;exitDy=0;endArrow=none;endFill=0;" parent="1" source="4" target="7" edge="1">
                    <mxGeometry relative="1" as="geometry">
                        <mxPoint x="260" y="150" as="sourcePoint"/>
                        <mxPoint x="160" y="150" as="targetPoint"/>
                    </mxGeometry>
                </mxCell>
                <mxCell id="15" style="edgeStyle=none;html=1;entryX=1;entryY=0.5;entryDx=0;entryDy=0;exitX=0;exitY=0.5;exitDx=0;exitDy=0;endArrow=none;endFill=0;" parent="1" source="4" target="6" edge="1">
                    <mxGeometry relative="1" as="geometry">
                        <mxPoint x="270" y="160" as="sourcePoint"/>
                        <mxPoint x="170" y="160" as="targetPoint"/>
                    </mxGeometry>
                </mxCell>
                <mxCell id="16" style="edgeStyle=none;html=1;entryX=1;entryY=0.5;entryDx=0;entryDy=0;exitX=0;exitY=0.5;exitDx=0;exitDy=0;endArrow=none;endFill=0;" parent="1" source="4" target="5" edge="1">
                    <mxGeometry relative="1" as="geometry">
                        <mxPoint x="250" y="120" as="sourcePoint"/>
                        <mxPoint x="180" y="170" as="targetPoint"/>
                    </mxGeometry>
                </mxCell>
                <mxCell id="17" style="edgeStyle=none;html=1;entryX=1;entryY=0.5;entryDx=0;entryDy=0;exitX=0;exitY=0.5;exitDx=0;exitDy=0;endArrow=none;endFill=0;" parent="1" source="4" target="9" edge="1">
                    <mxGeometry relative="1" as="geometry">
                        <mxPoint x="290" y="180" as="sourcePoint"/>
                        <mxPoint x="190" y="180" as="targetPoint"/>
                    </mxGeometry>
                </mxCell>
                <mxCell id="18" value="상품" style="whiteSpace=wrap;html=1;align=center;" parent="1" vertex="1">
                    <mxGeometry x="520.09" y="230" width="100" height="40" as="geometry"/>
                </mxCell>
                <mxCell id="19" value="상품번호" style="ellipse;whiteSpace=wrap;html=1;align=center;fontStyle=4;" parent="1" vertex="1">
                    <mxGeometry x="670.09" y="160" width="100" height="40" as="geometry"/>
                </mxCell>
                <mxCell id="20" value="상품명" style="ellipse;whiteSpace=wrap;html=1;align=center;" parent="1" vertex="1">
                    <mxGeometry x="670.09" y="210" width="100" height="40" as="geometry"/>
                </mxCell>
                <mxCell id="21" value="재고량" style="ellipse;whiteSpace=wrap;html=1;align=center;" parent="1" vertex="1">
                    <mxGeometry x="670.09" y="260" width="100" height="40" as="geometry"/>
                </mxCell>
                <mxCell id="22" value="단가" style="ellipse;whiteSpace=wrap;html=1;align=center;" parent="1" vertex="1">
                    <mxGeometry x="670.09" y="310" width="100" height="40" as="geometry"/>
                </mxCell>
                <mxCell id="23" style="edgeStyle=none;html=1;entryX=0;entryY=0.5;entryDx=0;entryDy=0;exitX=1;exitY=0.5;exitDx=0;exitDy=0;endArrow=none;endFill=0;" parent="1" source="18" target="19" edge="1">
                    <mxGeometry relative="1" as="geometry">
                        <mxPoint x="380.09000000000003" y="190" as="sourcePoint"/>
                        <mxPoint x="260.09000000000003" y="190" as="targetPoint"/>
                    </mxGeometry>
                </mxCell>
                <mxCell id="24" style="edgeStyle=none;html=1;entryX=0;entryY=0.5;entryDx=0;entryDy=0;exitX=1;exitY=0.5;exitDx=0;exitDy=0;endArrow=none;endFill=0;" parent="1" source="18" target="20" edge="1">
                    <mxGeometry relative="1" as="geometry">
                        <mxPoint x="620.09" y="190" as="sourcePoint"/>
                        <mxPoint x="680.09" y="190" as="targetPoint"/>
                    </mxGeometry>
                </mxCell>
                <mxCell id="25" style="edgeStyle=none;html=1;entryX=0;entryY=0.5;entryDx=0;entryDy=0;exitX=1;exitY=0.5;exitDx=0;exitDy=0;endArrow=none;endFill=0;" parent="1" source="18" target="21" edge="1">
                    <mxGeometry relative="1" as="geometry">
                        <mxPoint x="630.09" y="200" as="sourcePoint"/>
                        <mxPoint x="690.09" y="200" as="targetPoint"/>
                    </mxGeometry>
                </mxCell>
                <mxCell id="26" style="edgeStyle=none;html=1;entryX=0;entryY=0.5;entryDx=0;entryDy=0;exitX=1;exitY=0.5;exitDx=0;exitDy=0;endArrow=none;endFill=0;" parent="1" source="18" target="22" edge="1">
                    <mxGeometry relative="1" as="geometry">
                        <mxPoint x="640.09" y="210" as="sourcePoint"/>
                        <mxPoint x="700.09" y="210" as="targetPoint"/>
                    </mxGeometry>
                </mxCell>
                <mxCell id="27" value="제조업체" style="whiteSpace=wrap;html=1;align=center;" parent="1" vertex="1">
                    <mxGeometry x="520.09" y="490" width="100" height="40" as="geometry"/>
                </mxCell>
                <mxCell id="28" value="업체코드" style="ellipse;whiteSpace=wrap;html=1;align=center;fontStyle=4;" parent="1" vertex="1">
                    <mxGeometry x="670.09" y="400" width="100" height="40" as="geometry"/>
                </mxCell>
                <mxCell id="29" value="업체명" style="ellipse;whiteSpace=wrap;html=1;align=center;" parent="1" vertex="1">
                    <mxGeometry x="670.09" y="450" width="100" height="40" as="geometry"/>
                </mxCell>
                <mxCell id="30" value="전화번호" style="ellipse;whiteSpace=wrap;html=1;align=center;" parent="1" vertex="1">
                    <mxGeometry x="670.09" y="500" width="100" height="40" as="geometry"/>
                </mxCell>
                <mxCell id="31" value="위치" style="ellipse;whiteSpace=wrap;html=1;align=center;" parent="1" vertex="1">
                    <mxGeometry x="670.09" y="550" width="100" height="40" as="geometry"/>
                </mxCell>
                <mxCell id="32" value="담당자" style="ellipse;whiteSpace=wrap;html=1;align=center;" parent="1" vertex="1">
                    <mxGeometry x="670.09" y="600" width="100" height="40" as="geometry"/>
                </mxCell>
                <mxCell id="33" style="edgeStyle=none;html=1;entryX=0;entryY=0.5;entryDx=0;entryDy=0;exitX=1;exitY=0.5;exitDx=0;exitDy=0;endArrow=none;endFill=0;" parent="1" source="27" target="28" edge="1">
                    <mxGeometry relative="1" as="geometry">
                        <mxPoint x="680.09" y="210" as="sourcePoint"/>
                        <mxPoint x="740.09" y="210" as="targetPoint"/>
                    </mxGeometry>
                </mxCell>
                <mxCell id="34" style="edgeStyle=none;html=1;entryX=0;entryY=0.5;entryDx=0;entryDy=0;exitX=1;exitY=0.5;exitDx=0;exitDy=0;endArrow=none;endFill=0;" parent="1" source="27" target="29" edge="1">
                    <mxGeometry relative="1" as="geometry">
                        <mxPoint x="610.09" y="430" as="sourcePoint"/>
                        <mxPoint x="650.09" y="430" as="targetPoint"/>
                    </mxGeometry>
                </mxCell>
                <mxCell id="35" style="edgeStyle=none;html=1;entryX=0;entryY=0.5;entryDx=0;entryDy=0;exitX=1;exitY=0.5;exitDx=0;exitDy=0;endArrow=none;endFill=0;" parent="1" source="27" target="30" edge="1">
                    <mxGeometry relative="1" as="geometry">
                        <mxPoint x="620.09" y="440" as="sourcePoint"/>
                        <mxPoint x="660.09" y="440" as="targetPoint"/>
                    </mxGeometry>
                </mxCell>
                <mxCell id="36" style="edgeStyle=none;html=1;entryX=0;entryY=0.5;entryDx=0;entryDy=0;exitX=1;exitY=0.5;exitDx=0;exitDy=0;endArrow=none;endFill=0;" parent="1" source="27" target="31" edge="1">
                    <mxGeometry relative="1" as="geometry">
                        <mxPoint x="630.09" y="450" as="sourcePoint"/>
                        <mxPoint x="670.09" y="450" as="targetPoint"/>
                    </mxGeometry>
                </mxCell>
                <mxCell id="37" style="edgeStyle=none;html=1;entryX=0;entryY=0.5;entryDx=0;entryDy=0;exitX=1;exitY=0.5;exitDx=0;exitDy=0;endArrow=none;endFill=0;" parent="1" source="27" target="32" edge="1">
                    <mxGeometry relative="1" as="geometry">
                        <mxPoint x="640.09" y="460" as="sourcePoint"/>
                        <mxPoint x="680.09" y="460" as="targetPoint"/>
                    </mxGeometry>
                </mxCell>
                <mxCell id="39" value="게시글" style="whiteSpace=wrap;html=1;align=center;" parent="1" vertex="1">
                    <mxGeometry x="200" y="530" width="100" height="40" as="geometry"/>
                </mxCell>
                <mxCell id="40" value="글번호" style="ellipse;whiteSpace=wrap;html=1;align=center;fontStyle=4;" parent="1" vertex="1">
                    <mxGeometry x="30" y="470" width="100" height="40" as="geometry"/>
                </mxCell>
                <mxCell id="41" value="제목" style="ellipse;whiteSpace=wrap;html=1;align=center;" parent="1" vertex="1">
                    <mxGeometry x="30" y="520" width="100" height="40" as="geometry"/>
                </mxCell>
                <mxCell id="42" value="내용" style="ellipse;whiteSpace=wrap;html=1;align=center;" parent="1" vertex="1">
                    <mxGeometry x="30" y="570" width="100" height="40" as="geometry"/>
                </mxCell>
                <mxCell id="43" value="작성일" style="ellipse;whiteSpace=wrap;html=1;align=center;" parent="1" vertex="1">
                    <mxGeometry x="30" y="620" width="100" height="40" as="geometry"/>
                </mxCell>
                <mxCell id="44" style="edgeStyle=none;html=1;entryX=1;entryY=0.5;entryDx=0;entryDy=0;exitX=0;exitY=0.5;exitDx=0;exitDy=0;endArrow=none;endFill=0;" parent="1" source="39" target="40" edge="1">
                    <mxGeometry relative="1" as="geometry">
                        <mxPoint x="210" y="260" as="sourcePoint"/>
                        <mxPoint x="140" y="430" as="targetPoint"/>
                    </mxGeometry>
                </mxCell>
                <mxCell id="45" style="edgeStyle=none;html=1;entryX=1;entryY=0.5;entryDx=0;entryDy=0;endArrow=none;endFill=0;exitX=0;exitY=0.5;exitDx=0;exitDy=0;" parent="1" source="39" target="41" edge="1">
                    <mxGeometry relative="1" as="geometry">
                        <mxPoint x="180" y="490" as="sourcePoint"/>
                        <mxPoint x="140" y="500" as="targetPoint"/>
                    </mxGeometry>
                </mxCell>
                <mxCell id="46" style="edgeStyle=none;html=1;entryX=1;entryY=0.5;entryDx=0;entryDy=0;exitX=0;exitY=0.5;exitDx=0;exitDy=0;endArrow=none;endFill=0;" parent="1" source="39" target="42" edge="1">
                    <mxGeometry relative="1" as="geometry">
                        <mxPoint x="210" y="510" as="sourcePoint"/>
                        <mxPoint x="150" y="510" as="targetPoint"/>
                    </mxGeometry>
                </mxCell>
                <mxCell id="47" style="edgeStyle=none;html=1;entryX=1;entryY=0.5;entryDx=0;entryDy=0;exitX=0;exitY=0.5;exitDx=0;exitDy=0;endArrow=none;endFill=0;" parent="1" source="39" target="43" edge="1">
                    <mxGeometry relative="1" as="geometry">
                        <mxPoint x="220" y="520" as="sourcePoint"/>
                        <mxPoint x="160" y="520" as="targetPoint"/>
                    </mxGeometry>
                </mxCell>
                <mxCell id="49" value="" style="endArrow=none;html=1;rounded=0;exitX=1;exitY=0.5;exitDx=0;exitDy=0;entryX=0;entryY=0.5;entryDx=0;entryDy=0;" parent="1" source="48" target="18" edge="1">
                    <mxGeometry relative="1" as="geometry">
                        <mxPoint x="260" y="120" as="sourcePoint"/>
                        <mxPoint x="420" y="120" as="targetPoint"/>
                    </mxGeometry>
                </mxCell>
                <mxCell id="51" value="N" style="resizable=0;html=1;whiteSpace=wrap;align=right;verticalAlign=bottom;" parent="49" connectable="0" vertex="1">
                    <mxGeometry x="1" relative="1" as="geometry"/>
                </mxCell>
                <mxCell id="56" value="" style="endArrow=none;html=1;rounded=0;exitX=1;exitY=0.5;exitDx=0;exitDy=0;entryX=0;entryY=0.5;entryDx=0;entryDy=0;" parent="1" source="4" target="48" edge="1">
                    <mxGeometry relative="1" as="geometry">
                        <mxPoint x="300" y="250" as="sourcePoint"/>
                        <mxPoint x="480" y="170" as="targetPoint"/>
                    </mxGeometry>
                </mxCell>
                <mxCell id="57" value="M" style="resizable=0;html=1;whiteSpace=wrap;align=left;verticalAlign=bottom;" parent="56" connectable="0" vertex="1">
                    <mxGeometry x="-1" relative="1" as="geometry"/>
                </mxCell>
                <mxCell id="48" value="주문" style="shape=rhombus;perimeter=rhombusPerimeter;whiteSpace=wrap;html=1;align=center;" parent="1" vertex="1">
                    <mxGeometry x="350" y="220" width="120" height="60" as="geometry"/>
                </mxCell>
                <mxCell id="59" value="주문번호" style="ellipse;whiteSpace=wrap;html=1;align=center;fontStyle=4;" parent="1" vertex="1">
                    <mxGeometry x="250" y="170" width="100" height="40" as="geometry"/>
                </mxCell>
                <mxCell id="60" value="주문수량" style="ellipse;whiteSpace=wrap;html=1;align=center;" parent="1" vertex="1">
                    <mxGeometry x="310.11" y="120" width="100" height="40" as="geometry"/>
                </mxCell>
                <mxCell id="61" value="주문일자" style="ellipse;whiteSpace=wrap;html=1;align=center;" parent="1" vertex="1">
                    <mxGeometry x="420.09" y="120" width="100" height="40" as="geometry"/>
                </mxCell>
                <mxCell id="62" value="배송지" style="ellipse;whiteSpace=wrap;html=1;align=center;" parent="1" vertex="1">
                    <mxGeometry x="470" y="170" width="100" height="40" as="geometry"/>
                </mxCell>
                <mxCell id="64" style="edgeStyle=none;html=1;entryX=0.5;entryY=1;entryDx=0;entryDy=0;endArrow=none;endFill=0;" parent="1" source="48" target="59" edge="1">
                    <mxGeometry relative="1" as="geometry">
                        <mxPoint x="210" y="260" as="sourcePoint"/>
                        <mxPoint x="140" y="130" as="targetPoint"/>
                    </mxGeometry>
                </mxCell>
                <mxCell id="65" style="edgeStyle=none;html=1;entryX=0.5;entryY=1;entryDx=0;entryDy=0;endArrow=none;endFill=0;exitX=0.5;exitY=0;exitDx=0;exitDy=0;" parent="1" source="48" target="60" edge="1">
                    <mxGeometry relative="1" as="geometry">
                        <mxPoint x="385" y="247" as="sourcePoint"/>
                        <mxPoint x="310" y="220" as="targetPoint"/>
                    </mxGeometry>
                </mxCell>
                <mxCell id="66" style="edgeStyle=none;html=1;entryX=0.5;entryY=1;entryDx=0;entryDy=0;endArrow=none;endFill=0;exitX=0.5;exitY=0;exitDx=0;exitDy=0;" parent="1" source="48" target="61" edge="1">
                    <mxGeometry relative="1" as="geometry">
                        <mxPoint x="430" y="210" as="sourcePoint"/>
                        <mxPoint x="370" y="170" as="targetPoint"/>
                    </mxGeometry>
                </mxCell>
                <mxCell id="67" style="edgeStyle=none;html=1;entryX=0.5;entryY=1;entryDx=0;entryDy=0;endArrow=none;endFill=0;exitX=1;exitY=0;exitDx=0;exitDy=0;" parent="1" source="48" target="62" edge="1">
                    <mxGeometry relative="1" as="geometry">
                        <mxPoint x="420" y="230" as="sourcePoint"/>
                        <mxPoint x="480" y="170" as="targetPoint"/>
                    </mxGeometry>
                </mxCell>
                <mxCell id="71" value="" style="endArrow=none;html=1;rounded=0;exitX=0.5;exitY=0;exitDx=0;exitDy=0;entryX=0.5;entryY=1;entryDx=0;entryDy=0;" parent="1" source="68" target="18" edge="1">
                    <mxGeometry relative="1" as="geometry">
                        <mxPoint x="350" y="490" as="sourcePoint"/>
                        <mxPoint x="510" y="490" as="targetPoint"/>
                    </mxGeometry>
                </mxCell>
                <mxCell id="73" value="N" style="resizable=0;html=1;whiteSpace=wrap;align=right;verticalAlign=bottom;" parent="71" connectable="0" vertex="1">
                    <mxGeometry x="1" relative="1" as="geometry">
                        <mxPoint y="20" as="offset"/>
                    </mxGeometry>
                </mxCell>
                <mxCell id="74" value="" style="endArrow=none;html=1;rounded=0;exitX=0.5;exitY=0;exitDx=0;exitDy=0;entryX=0.5;entryY=1;entryDx=0;entryDy=0;" parent="1" source="27" target="68" edge="1">
                    <mxGeometry relative="1" as="geometry">
                        <mxPoint x="570" y="490" as="sourcePoint"/>
                        <mxPoint x="570" y="270" as="targetPoint"/>
                    </mxGeometry>
                </mxCell>
                <mxCell id="75" value="1" style="resizable=0;html=1;whiteSpace=wrap;align=left;verticalAlign=bottom;" parent="74" connectable="0" vertex="1">
                    <mxGeometry x="-1" relative="1" as="geometry">
                        <mxPoint x="-10" as="offset"/>
                    </mxGeometry>
                </mxCell>
                <mxCell id="68" value="공급" style="shape=rhombus;perimeter=rhombusPerimeter;whiteSpace=wrap;html=1;align=center;" parent="1" vertex="1">
                    <mxGeometry x="510.09" y="350" width="120" height="60" as="geometry"/>
                </mxCell>
                <mxCell id="77" value="" style="endArrow=none;html=1;rounded=0;entryX=0.5;entryY=0;entryDx=0;entryDy=0;exitX=0.5;exitY=1;exitDx=0;exitDy=0;" parent="1" source="80" target="39" edge="1">
                    <mxGeometry relative="1" as="geometry">
                        <mxPoint x="350" y="490" as="sourcePoint"/>
                        <mxPoint x="510" y="490" as="targetPoint"/>
                    </mxGeometry>
                </mxCell>
                <mxCell id="79" value="N" style="resizable=0;html=1;whiteSpace=wrap;align=right;verticalAlign=bottom;" parent="77" connectable="0" vertex="1">
                    <mxGeometry x="1" relative="1" as="geometry">
                        <mxPoint x="20" as="offset"/>
                    </mxGeometry>
                </mxCell>
                <mxCell id="81" value="" style="endArrow=none;html=1;rounded=0;entryX=0.5;entryY=0;entryDx=0;entryDy=0;exitX=0.5;exitY=1;exitDx=0;exitDy=0;" parent="1" source="4" target="80" edge="1">
                    <mxGeometry relative="1" as="geometry">
                        <mxPoint x="250" y="270" as="sourcePoint"/>
                        <mxPoint x="250" y="530" as="targetPoint"/>
                    </mxGeometry>
                </mxCell>
                <mxCell id="82" value="1" style="resizable=0;html=1;whiteSpace=wrap;align=left;verticalAlign=bottom;" parent="81" connectable="0" vertex="1">
                    <mxGeometry x="-1" relative="1" as="geometry">
                        <mxPoint x="10" y="20" as="offset"/>
                    </mxGeometry>
                </mxCell>
                <mxCell id="80" value="작성" style="shape=rhombus;perimeter=rhombusPerimeter;whiteSpace=wrap;html=1;align=center;" parent="1" vertex="1">
                    <mxGeometry x="189.9999999999999" y="360" width="120" height="60" as="geometry"/>
                </mxCell>
            </root>
        </mxGraphModel>
    </diagram>
    <diagram id="b1OqAOhYUL20q2Vax08h" name="페이지-2">
        <mxGraphModel dx="785" dy="1732" grid="1" gridSize="10" guides="1" tooltips="1" connect="1" arrows="1" fold="1" page="1" pageScale="1" pageWidth="827" pageHeight="1169" math="0" shadow="0">
            <root>
                <mxCell id="0"/>
                <mxCell id="1" parent="0"/>
                <mxCell id="iJShma8b3yrAg-s8MZZU-1" value="회원" style="shape=table;startSize=30;container=1;collapsible=1;childLayout=tableLayout;fixedRows=1;rowLines=0;fontStyle=1;align=center;resizeLast=1;html=1;" parent="1" vertex="1">
                    <mxGeometry x="250" y="70" width="130" height="240" as="geometry"/>
                </mxCell>
                <mxCell id="iJShma8b3yrAg-s8MZZU-2" value="" style="shape=tableRow;horizontal=0;startSize=0;swimlaneHead=0;swimlaneBody=0;fillColor=none;collapsible=0;dropTarget=0;points=[[0,0.5],[1,0.5]];portConstraint=eastwest;top=0;left=0;right=0;bottom=1;" parent="iJShma8b3yrAg-s8MZZU-1" vertex="1">
                    <mxGeometry y="30" width="130" height="30" as="geometry"/>
                </mxCell>
                <mxCell id="iJShma8b3yrAg-s8MZZU-3" value="PK" style="shape=partialRectangle;connectable=0;fillColor=none;top=0;left=0;bottom=0;right=0;fontStyle=1;overflow=hidden;whiteSpace=wrap;html=1;" parent="iJShma8b3yrAg-s8MZZU-2" vertex="1">
                    <mxGeometry width="30" height="30" as="geometry">
                        <mxRectangle width="30" height="30" as="alternateBounds"/>
                    </mxGeometry>
                </mxCell>
                <mxCell id="iJShma8b3yrAg-s8MZZU-4" value="아이디" style="shape=partialRectangle;connectable=0;fillColor=none;top=0;left=0;bottom=0;right=0;align=left;spacingLeft=6;fontStyle=5;overflow=hidden;whiteSpace=wrap;html=1;" parent="iJShma8b3yrAg-s8MZZU-2" vertex="1">
                    <mxGeometry x="30" width="100" height="30" as="geometry">
                        <mxRectangle width="100" height="30" as="alternateBounds"/>
                    </mxGeometry>
                </mxCell>
                <mxCell id="iJShma8b3yrAg-s8MZZU-5" value="" style="shape=tableRow;horizontal=0;startSize=0;swimlaneHead=0;swimlaneBody=0;fillColor=none;collapsible=0;dropTarget=0;points=[[0,0.5],[1,0.5]];portConstraint=eastwest;top=0;left=0;right=0;bottom=0;" parent="iJShma8b3yrAg-s8MZZU-1" vertex="1">
                    <mxGeometry y="60" width="130" height="30" as="geometry"/>
                </mxCell>
                <mxCell id="iJShma8b3yrAg-s8MZZU-6" value="" style="shape=partialRectangle;connectable=0;fillColor=none;top=0;left=0;bottom=0;right=0;editable=1;overflow=hidden;whiteSpace=wrap;html=1;" parent="iJShma8b3yrAg-s8MZZU-5" vertex="1">
                    <mxGeometry width="30" height="30" as="geometry">
                        <mxRectangle width="30" height="30" as="alternateBounds"/>
                    </mxGeometry>
                </mxCell>
                <mxCell id="iJShma8b3yrAg-s8MZZU-7" value="비밀번호" style="shape=partialRectangle;connectable=0;fillColor=none;top=0;left=0;bottom=0;right=0;align=left;spacingLeft=6;overflow=hidden;whiteSpace=wrap;html=1;" parent="iJShma8b3yrAg-s8MZZU-5" vertex="1">
                    <mxGeometry x="30" width="100" height="30" as="geometry">
                        <mxRectangle width="100" height="30" as="alternateBounds"/>
                    </mxGeometry>
                </mxCell>
                <mxCell id="iJShma8b3yrAg-s8MZZU-8" value="" style="shape=tableRow;horizontal=0;startSize=0;swimlaneHead=0;swimlaneBody=0;fillColor=none;collapsible=0;dropTarget=0;points=[[0,0.5],[1,0.5]];portConstraint=eastwest;top=0;left=0;right=0;bottom=0;" parent="iJShma8b3yrAg-s8MZZU-1" vertex="1">
                    <mxGeometry y="90" width="130" height="30" as="geometry"/>
                </mxCell>
                <mxCell id="iJShma8b3yrAg-s8MZZU-9" value="" style="shape=partialRectangle;connectable=0;fillColor=none;top=0;left=0;bottom=0;right=0;editable=1;overflow=hidden;whiteSpace=wrap;html=1;" parent="iJShma8b3yrAg-s8MZZU-8" vertex="1">
                    <mxGeometry width="30" height="30" as="geometry">
                        <mxRectangle width="30" height="30" as="alternateBounds"/>
                    </mxGeometry>
                </mxCell>
                <mxCell id="iJShma8b3yrAg-s8MZZU-10" value="이름" style="shape=partialRectangle;connectable=0;fillColor=none;top=0;left=0;bottom=0;right=0;align=left;spacingLeft=6;overflow=hidden;whiteSpace=wrap;html=1;" parent="iJShma8b3yrAg-s8MZZU-8" vertex="1">
                    <mxGeometry x="30" width="100" height="30" as="geometry">
                        <mxRectangle width="100" height="30" as="alternateBounds"/>
                    </mxGeometry>
                </mxCell>
                <mxCell id="iJShma8b3yrAg-s8MZZU-11" value="" style="shape=tableRow;horizontal=0;startSize=0;swimlaneHead=0;swimlaneBody=0;fillColor=none;collapsible=0;dropTarget=0;points=[[0,0.5],[1,0.5]];portConstraint=eastwest;top=0;left=0;right=0;bottom=0;" parent="iJShma8b3yrAg-s8MZZU-1" vertex="1">
                    <mxGeometry y="120" width="130" height="30" as="geometry"/>
                </mxCell>
                <mxCell id="iJShma8b3yrAg-s8MZZU-12" value="" style="shape=partialRectangle;connectable=0;fillColor=none;top=0;left=0;bottom=0;right=0;editable=1;overflow=hidden;whiteSpace=wrap;html=1;" parent="iJShma8b3yrAg-s8MZZU-11" vertex="1">
                    <mxGeometry width="30" height="30" as="geometry">
                        <mxRectangle width="30" height="30" as="alternateBounds"/>
                    </mxGeometry>
                </mxCell>
                <mxCell id="iJShma8b3yrAg-s8MZZU-13" value="나이" style="shape=partialRectangle;connectable=0;fillColor=none;top=0;left=0;bottom=0;right=0;align=left;spacingLeft=6;overflow=hidden;whiteSpace=wrap;html=1;" parent="iJShma8b3yrAg-s8MZZU-11" vertex="1">
                    <mxGeometry x="30" width="100" height="30" as="geometry">
                        <mxRectangle width="100" height="30" as="alternateBounds"/>
                    </mxGeometry>
                </mxCell>
                <mxCell id="JKSsG9Cw3hSMktboCmLt-2" value="" style="shape=tableRow;horizontal=0;startSize=0;swimlaneHead=0;swimlaneBody=0;fillColor=none;collapsible=0;dropTarget=0;points=[[0,0.5],[1,0.5]];portConstraint=eastwest;top=0;left=0;right=0;bottom=0;" parent="iJShma8b3yrAg-s8MZZU-1" vertex="1">
                    <mxGeometry y="150" width="130" height="30" as="geometry"/>
                </mxCell>
                <mxCell id="JKSsG9Cw3hSMktboCmLt-3" value="" style="shape=partialRectangle;connectable=0;fillColor=none;top=0;left=0;bottom=0;right=0;editable=1;overflow=hidden;whiteSpace=wrap;html=1;" parent="JKSsG9Cw3hSMktboCmLt-2" vertex="1">
                    <mxGeometry width="30" height="30" as="geometry">
                        <mxRectangle width="30" height="30" as="alternateBounds"/>
                    </mxGeometry>
                </mxCell>
                <mxCell id="JKSsG9Cw3hSMktboCmLt-4" value="직업" style="shape=partialRectangle;connectable=0;fillColor=none;top=0;left=0;bottom=0;right=0;align=left;spacingLeft=6;overflow=hidden;whiteSpace=wrap;html=1;" parent="JKSsG9Cw3hSMktboCmLt-2" vertex="1">
                    <mxGeometry x="30" width="100" height="30" as="geometry">
                        <mxRectangle width="100" height="30" as="alternateBounds"/>
                    </mxGeometry>
                </mxCell>
                <mxCell id="JKSsG9Cw3hSMktboCmLt-5" value="" style="shape=tableRow;horizontal=0;startSize=0;swimlaneHead=0;swimlaneBody=0;fillColor=none;collapsible=0;dropTarget=0;points=[[0,0.5],[1,0.5]];portConstraint=eastwest;top=0;left=0;right=0;bottom=0;" parent="iJShma8b3yrAg-s8MZZU-1" vertex="1">
                    <mxGeometry y="180" width="130" height="30" as="geometry"/>
                </mxCell>
                <mxCell id="JKSsG9Cw3hSMktboCmLt-6" value="" style="shape=partialRectangle;connectable=0;fillColor=none;top=0;left=0;bottom=0;right=0;editable=1;overflow=hidden;whiteSpace=wrap;html=1;" parent="JKSsG9Cw3hSMktboCmLt-5" vertex="1">
                    <mxGeometry width="30" height="30" as="geometry">
                        <mxRectangle width="30" height="30" as="alternateBounds"/>
                    </mxGeometry>
                </mxCell>
                <mxCell id="JKSsG9Cw3hSMktboCmLt-7" value="등급" style="shape=partialRectangle;connectable=0;fillColor=none;top=0;left=0;bottom=0;right=0;align=left;spacingLeft=6;overflow=hidden;whiteSpace=wrap;html=1;" parent="JKSsG9Cw3hSMktboCmLt-5" vertex="1">
                    <mxGeometry x="30" width="100" height="30" as="geometry">
                        <mxRectangle width="100" height="30" as="alternateBounds"/>
                    </mxGeometry>
                </mxCell>
                <mxCell id="JKSsG9Cw3hSMktboCmLt-8" value="" style="shape=tableRow;horizontal=0;startSize=0;swimlaneHead=0;swimlaneBody=0;fillColor=none;collapsible=0;dropTarget=0;points=[[0,0.5],[1,0.5]];portConstraint=eastwest;top=0;left=0;right=0;bottom=0;" parent="iJShma8b3yrAg-s8MZZU-1" vertex="1">
                    <mxGeometry y="210" width="130" height="30" as="geometry"/>
                </mxCell>
                <mxCell id="JKSsG9Cw3hSMktboCmLt-9" value="" style="shape=partialRectangle;connectable=0;fillColor=none;top=0;left=0;bottom=0;right=0;editable=1;overflow=hidden;whiteSpace=wrap;html=1;" parent="JKSsG9Cw3hSMktboCmLt-8" vertex="1">
                    <mxGeometry width="30" height="30" as="geometry">
                        <mxRectangle width="30" height="30" as="alternateBounds"/>
                    </mxGeometry>
                </mxCell>
                <mxCell id="JKSsG9Cw3hSMktboCmLt-10" value="적립금" style="shape=partialRectangle;connectable=0;fillColor=none;top=0;left=0;bottom=0;right=0;align=left;spacingLeft=6;overflow=hidden;whiteSpace=wrap;html=1;" parent="JKSsG9Cw3hSMktboCmLt-8" vertex="1">
                    <mxGeometry x="30" width="100" height="30" as="geometry">
                        <mxRectangle width="100" height="30" as="alternateBounds"/>
                    </mxGeometry>
                </mxCell>
                <mxCell id="kGX8xI55NNpxRaj9QN0p-1" value="게시글" style="shape=table;startSize=30;container=1;collapsible=1;childLayout=tableLayout;fixedRows=1;rowLines=0;fontStyle=1;align=center;resizeLast=1;html=1;" parent="1" vertex="1">
                    <mxGeometry x="90" y="70" width="140" height="180" as="geometry"/>
                </mxCell>
                <mxCell id="kGX8xI55NNpxRaj9QN0p-2" value="" style="shape=tableRow;horizontal=0;startSize=0;swimlaneHead=0;swimlaneBody=0;fillColor=none;collapsible=0;dropTarget=0;points=[[0,0.5],[1,0.5]];portConstraint=eastwest;top=0;left=0;right=0;bottom=1;" parent="kGX8xI55NNpxRaj9QN0p-1" vertex="1">
                    <mxGeometry y="30" width="140" height="30" as="geometry"/>
                </mxCell>
                <mxCell id="kGX8xI55NNpxRaj9QN0p-3" value="PK" style="shape=partialRectangle;connectable=0;fillColor=none;top=0;left=0;bottom=0;right=0;fontStyle=1;overflow=hidden;whiteSpace=wrap;html=1;" parent="kGX8xI55NNpxRaj9QN0p-2" vertex="1">
                    <mxGeometry width="30" height="30" as="geometry">
                        <mxRectangle width="30" height="30" as="alternateBounds"/>
                    </mxGeometry>
                </mxCell>
                <mxCell id="kGX8xI55NNpxRaj9QN0p-4" value="글번호" style="shape=partialRectangle;connectable=0;fillColor=none;top=0;left=0;bottom=0;right=0;align=left;spacingLeft=6;fontStyle=5;overflow=hidden;whiteSpace=wrap;html=1;" parent="kGX8xI55NNpxRaj9QN0p-2" vertex="1">
                    <mxGeometry x="30" width="110" height="30" as="geometry">
                        <mxRectangle width="110" height="30" as="alternateBounds"/>
                    </mxGeometry>
                </mxCell>
                <mxCell id="vKQG5tQtmzhrOWYcKp-G-10" value="" style="shape=tableRow;horizontal=0;startSize=0;swimlaneHead=0;swimlaneBody=0;fillColor=none;collapsible=0;dropTarget=0;points=[[0,0.5],[1,0.5]];portConstraint=eastwest;top=0;left=0;right=0;bottom=1;" parent="kGX8xI55NNpxRaj9QN0p-1" vertex="1">
                    <mxGeometry y="60" width="140" height="30" as="geometry"/>
                </mxCell>
                <mxCell id="vKQG5tQtmzhrOWYcKp-G-11" value="FK" style="shape=partialRectangle;connectable=0;fillColor=none;top=0;left=0;bottom=0;right=0;fontStyle=1;overflow=hidden;whiteSpace=wrap;html=1;" parent="vKQG5tQtmzhrOWYcKp-G-10" vertex="1">
                    <mxGeometry width="30" height="30" as="geometry">
                        <mxRectangle width="30" height="30" as="alternateBounds"/>
                    </mxGeometry>
                </mxCell>
                <mxCell id="vKQG5tQtmzhrOWYcKp-G-12" value="아이디" style="shape=partialRectangle;connectable=0;fillColor=none;top=0;left=0;bottom=0;right=0;align=left;spacingLeft=6;fontStyle=5;overflow=hidden;whiteSpace=wrap;html=1;" parent="vKQG5tQtmzhrOWYcKp-G-10" vertex="1">
                    <mxGeometry x="30" width="110" height="30" as="geometry">
                        <mxRectangle width="110" height="30" as="alternateBounds"/>
                    </mxGeometry>
                </mxCell>
                <mxCell id="kGX8xI55NNpxRaj9QN0p-5" value="" style="shape=tableRow;horizontal=0;startSize=0;swimlaneHead=0;swimlaneBody=0;fillColor=none;collapsible=0;dropTarget=0;points=[[0,0.5],[1,0.5]];portConstraint=eastwest;top=0;left=0;right=0;bottom=0;" parent="kGX8xI55NNpxRaj9QN0p-1" vertex="1">
                    <mxGeometry y="90" width="140" height="30" as="geometry"/>
                </mxCell>
                <mxCell id="kGX8xI55NNpxRaj9QN0p-6" value="" style="shape=partialRectangle;connectable=0;fillColor=none;top=0;left=0;bottom=0;right=0;editable=1;overflow=hidden;whiteSpace=wrap;html=1;" parent="kGX8xI55NNpxRaj9QN0p-5" vertex="1">
                    <mxGeometry width="30" height="30" as="geometry">
                        <mxRectangle width="30" height="30" as="alternateBounds"/>
                    </mxGeometry>
                </mxCell>
                <mxCell id="kGX8xI55NNpxRaj9QN0p-7" value="제목" style="shape=partialRectangle;connectable=0;fillColor=none;top=0;left=0;bottom=0;right=0;align=left;spacingLeft=6;overflow=hidden;whiteSpace=wrap;html=1;" parent="kGX8xI55NNpxRaj9QN0p-5" vertex="1">
                    <mxGeometry x="30" width="110" height="30" as="geometry">
                        <mxRectangle width="110" height="30" as="alternateBounds"/>
                    </mxGeometry>
                </mxCell>
                <mxCell id="kGX8xI55NNpxRaj9QN0p-8" value="" style="shape=tableRow;horizontal=0;startSize=0;swimlaneHead=0;swimlaneBody=0;fillColor=none;collapsible=0;dropTarget=0;points=[[0,0.5],[1,0.5]];portConstraint=eastwest;top=0;left=0;right=0;bottom=0;" parent="kGX8xI55NNpxRaj9QN0p-1" vertex="1">
                    <mxGeometry y="120" width="140" height="30" as="geometry"/>
                </mxCell>
                <mxCell id="kGX8xI55NNpxRaj9QN0p-9" value="" style="shape=partialRectangle;connectable=0;fillColor=none;top=0;left=0;bottom=0;right=0;editable=1;overflow=hidden;whiteSpace=wrap;html=1;" parent="kGX8xI55NNpxRaj9QN0p-8" vertex="1">
                    <mxGeometry width="30" height="30" as="geometry">
                        <mxRectangle width="30" height="30" as="alternateBounds"/>
                    </mxGeometry>
                </mxCell>
                <mxCell id="kGX8xI55NNpxRaj9QN0p-10" value="내용" style="shape=partialRectangle;connectable=0;fillColor=none;top=0;left=0;bottom=0;right=0;align=left;spacingLeft=6;overflow=hidden;whiteSpace=wrap;html=1;" parent="kGX8xI55NNpxRaj9QN0p-8" vertex="1">
                    <mxGeometry x="30" width="110" height="30" as="geometry">
                        <mxRectangle width="110" height="30" as="alternateBounds"/>
                    </mxGeometry>
                </mxCell>
                <mxCell id="kGX8xI55NNpxRaj9QN0p-11" value="" style="shape=tableRow;horizontal=0;startSize=0;swimlaneHead=0;swimlaneBody=0;fillColor=none;collapsible=0;dropTarget=0;points=[[0,0.5],[1,0.5]];portConstraint=eastwest;top=0;left=0;right=0;bottom=0;" parent="kGX8xI55NNpxRaj9QN0p-1" vertex="1">
                    <mxGeometry y="150" width="140" height="30" as="geometry"/>
                </mxCell>
                <mxCell id="kGX8xI55NNpxRaj9QN0p-12" value="" style="shape=partialRectangle;connectable=0;fillColor=none;top=0;left=0;bottom=0;right=0;editable=1;overflow=hidden;whiteSpace=wrap;html=1;" parent="kGX8xI55NNpxRaj9QN0p-11" vertex="1">
                    <mxGeometry width="30" height="30" as="geometry">
                        <mxRectangle width="30" height="30" as="alternateBounds"/>
                    </mxGeometry>
                </mxCell>
                <mxCell id="kGX8xI55NNpxRaj9QN0p-13" value="작성일" style="shape=partialRectangle;connectable=0;fillColor=none;top=0;left=0;bottom=0;right=0;align=left;spacingLeft=6;overflow=hidden;whiteSpace=wrap;html=1;" parent="kGX8xI55NNpxRaj9QN0p-11" vertex="1">
                    <mxGeometry x="30" width="110" height="30" as="geometry">
                        <mxRectangle width="110" height="30" as="alternateBounds"/>
                    </mxGeometry>
                </mxCell>
                <mxCell id="mz9bFeznhSZMjHszr-4--1" value="상품" style="shape=table;startSize=30;container=1;collapsible=1;childLayout=tableLayout;fixedRows=1;rowLines=0;fontStyle=1;align=center;resizeLast=1;html=1;" parent="1" vertex="1">
                    <mxGeometry x="570" y="70" width="150" height="210" as="geometry"/>
                </mxCell>
                <mxCell id="mz9bFeznhSZMjHszr-4--2" value="" style="shape=tableRow;horizontal=0;startSize=0;swimlaneHead=0;swimlaneBody=0;fillColor=none;collapsible=0;dropTarget=0;points=[[0,0.5],[1,0.5]];portConstraint=eastwest;top=0;left=0;right=0;bottom=1;" parent="mz9bFeznhSZMjHszr-4--1" vertex="1">
                    <mxGeometry y="30" width="150" height="30" as="geometry"/>
                </mxCell>
                <mxCell id="mz9bFeznhSZMjHszr-4--3" value="PK" style="shape=partialRectangle;connectable=0;fillColor=none;top=0;left=0;bottom=0;right=0;fontStyle=1;overflow=hidden;whiteSpace=wrap;html=1;" parent="mz9bFeznhSZMjHszr-4--2" vertex="1">
                    <mxGeometry width="30" height="30" as="geometry">
                        <mxRectangle width="30" height="30" as="alternateBounds"/>
                    </mxGeometry>
                </mxCell>
                <mxCell id="mz9bFeznhSZMjHszr-4--4" value="상품번호" style="shape=partialRectangle;connectable=0;fillColor=none;top=0;left=0;bottom=0;right=0;align=left;spacingLeft=6;fontStyle=5;overflow=hidden;whiteSpace=wrap;html=1;" parent="mz9bFeznhSZMjHszr-4--2" vertex="1">
                    <mxGeometry x="30" width="120" height="30" as="geometry">
                        <mxRectangle width="120" height="30" as="alternateBounds"/>
                    </mxGeometry>
                </mxCell>
                <mxCell id="vKQG5tQtmzhrOWYcKp-G-13" value="" style="shape=tableRow;horizontal=0;startSize=0;swimlaneHead=0;swimlaneBody=0;fillColor=none;collapsible=0;dropTarget=0;points=[[0,0.5],[1,0.5]];portConstraint=eastwest;top=0;left=0;right=0;bottom=1;" parent="mz9bFeznhSZMjHszr-4--1" vertex="1">
                    <mxGeometry y="60" width="150" height="30" as="geometry"/>
                </mxCell>
                <mxCell id="vKQG5tQtmzhrOWYcKp-G-14" value="FK" style="shape=partialRectangle;connectable=0;fillColor=none;top=0;left=0;bottom=0;right=0;fontStyle=1;overflow=hidden;whiteSpace=wrap;html=1;" parent="vKQG5tQtmzhrOWYcKp-G-13" vertex="1">
                    <mxGeometry width="30" height="30" as="geometry">
                        <mxRectangle width="30" height="30" as="alternateBounds"/>
                    </mxGeometry>
                </mxCell>
                <mxCell id="vKQG5tQtmzhrOWYcKp-G-15" value="업체코드" style="shape=partialRectangle;connectable=0;fillColor=none;top=0;left=0;bottom=0;right=0;align=left;spacingLeft=6;fontStyle=5;overflow=hidden;whiteSpace=wrap;html=1;" parent="vKQG5tQtmzhrOWYcKp-G-13" vertex="1">
                    <mxGeometry x="30" width="120" height="30" as="geometry">
                        <mxRectangle width="120" height="30" as="alternateBounds"/>
                    </mxGeometry>
                </mxCell>
                <mxCell id="mz9bFeznhSZMjHszr-4--5" value="" style="shape=tableRow;horizontal=0;startSize=0;swimlaneHead=0;swimlaneBody=0;fillColor=none;collapsible=0;dropTarget=0;points=[[0,0.5],[1,0.5]];portConstraint=eastwest;top=0;left=0;right=0;bottom=0;" parent="mz9bFeznhSZMjHszr-4--1" vertex="1">
                    <mxGeometry y="90" width="150" height="30" as="geometry"/>
                </mxCell>
                <mxCell id="mz9bFeznhSZMjHszr-4--6" value="" style="shape=partialRectangle;connectable=0;fillColor=none;top=0;left=0;bottom=0;right=0;editable=1;overflow=hidden;whiteSpace=wrap;html=1;" parent="mz9bFeznhSZMjHszr-4--5" vertex="1">
                    <mxGeometry width="30" height="30" as="geometry">
                        <mxRectangle width="30" height="30" as="alternateBounds"/>
                    </mxGeometry>
                </mxCell>
                <mxCell id="mz9bFeznhSZMjHszr-4--7" value="상품명" style="shape=partialRectangle;connectable=0;fillColor=none;top=0;left=0;bottom=0;right=0;align=left;spacingLeft=6;overflow=hidden;whiteSpace=wrap;html=1;" parent="mz9bFeznhSZMjHszr-4--5" vertex="1">
                    <mxGeometry x="30" width="120" height="30" as="geometry">
                        <mxRectangle width="120" height="30" as="alternateBounds"/>
                    </mxGeometry>
                </mxCell>
                <mxCell id="mz9bFeznhSZMjHszr-4--8" value="" style="shape=tableRow;horizontal=0;startSize=0;swimlaneHead=0;swimlaneBody=0;fillColor=none;collapsible=0;dropTarget=0;points=[[0,0.5],[1,0.5]];portConstraint=eastwest;top=0;left=0;right=0;bottom=0;" parent="mz9bFeznhSZMjHszr-4--1" vertex="1">
                    <mxGeometry y="120" width="150" height="30" as="geometry"/>
                </mxCell>
                <mxCell id="mz9bFeznhSZMjHszr-4--9" value="" style="shape=partialRectangle;connectable=0;fillColor=none;top=0;left=0;bottom=0;right=0;editable=1;overflow=hidden;whiteSpace=wrap;html=1;" parent="mz9bFeznhSZMjHszr-4--8" vertex="1">
                    <mxGeometry width="30" height="30" as="geometry">
                        <mxRectangle width="30" height="30" as="alternateBounds"/>
                    </mxGeometry>
                </mxCell>
                <mxCell id="mz9bFeznhSZMjHszr-4--10" value="재고량" style="shape=partialRectangle;connectable=0;fillColor=none;top=0;left=0;bottom=0;right=0;align=left;spacingLeft=6;overflow=hidden;whiteSpace=wrap;html=1;" parent="mz9bFeznhSZMjHszr-4--8" vertex="1">
                    <mxGeometry x="30" width="120" height="30" as="geometry">
                        <mxRectangle width="120" height="30" as="alternateBounds"/>
                    </mxGeometry>
                </mxCell>
                <mxCell id="mz9bFeznhSZMjHszr-4--11" value="" style="shape=tableRow;horizontal=0;startSize=0;swimlaneHead=0;swimlaneBody=0;fillColor=none;collapsible=0;dropTarget=0;points=[[0,0.5],[1,0.5]];portConstraint=eastwest;top=0;left=0;right=0;bottom=0;" parent="mz9bFeznhSZMjHszr-4--1" vertex="1">
                    <mxGeometry y="150" width="150" height="30" as="geometry"/>
                </mxCell>
                <mxCell id="mz9bFeznhSZMjHszr-4--12" value="" style="shape=partialRectangle;connectable=0;fillColor=none;top=0;left=0;bottom=0;right=0;editable=1;overflow=hidden;whiteSpace=wrap;html=1;" parent="mz9bFeznhSZMjHszr-4--11" vertex="1">
                    <mxGeometry width="30" height="30" as="geometry">
                        <mxRectangle width="30" height="30" as="alternateBounds"/>
                    </mxGeometry>
                </mxCell>
                <mxCell id="mz9bFeznhSZMjHszr-4--13" value="단가" style="shape=partialRectangle;connectable=0;fillColor=none;top=0;left=0;bottom=0;right=0;align=left;spacingLeft=6;overflow=hidden;whiteSpace=wrap;html=1;" parent="mz9bFeznhSZMjHszr-4--11" vertex="1">
                    <mxGeometry x="30" width="120" height="30" as="geometry">
                        <mxRectangle width="120" height="30" as="alternateBounds"/>
                    </mxGeometry>
                </mxCell>
                <mxCell id="EN2rjw1VibZPI0A6L4zf-3" value="" style="shape=tableRow;horizontal=0;startSize=0;swimlaneHead=0;swimlaneBody=0;fillColor=none;collapsible=0;dropTarget=0;points=[[0,0.5],[1,0.5]];portConstraint=eastwest;top=0;left=0;right=0;bottom=0;" parent="mz9bFeznhSZMjHszr-4--1" vertex="1">
                    <mxGeometry y="180" width="150" height="30" as="geometry"/>
                </mxCell>
                <mxCell id="EN2rjw1VibZPI0A6L4zf-4" value="" style="shape=partialRectangle;connectable=0;fillColor=none;top=0;left=0;bottom=0;right=0;editable=1;overflow=hidden;whiteSpace=wrap;html=1;" parent="EN2rjw1VibZPI0A6L4zf-3" vertex="1">
                    <mxGeometry width="30" height="30" as="geometry">
                        <mxRectangle width="30" height="30" as="alternateBounds"/>
                    </mxGeometry>
                </mxCell>
                <mxCell id="EN2rjw1VibZPI0A6L4zf-5" value="등급" style="shape=partialRectangle;connectable=0;fillColor=none;top=0;left=0;bottom=0;right=0;align=left;spacingLeft=6;overflow=hidden;whiteSpace=wrap;html=1;" parent="EN2rjw1VibZPI0A6L4zf-3" vertex="1">
                    <mxGeometry x="30" width="120" height="30" as="geometry">
                        <mxRectangle width="120" height="30" as="alternateBounds"/>
                    </mxGeometry>
                </mxCell>
                <mxCell id="6Z9Xi_MxegjO8xXkSZny-1" value="제조업체" style="shape=table;startSize=30;container=1;collapsible=1;childLayout=tableLayout;fixedRows=1;rowLines=0;fontStyle=1;align=center;resizeLast=1;html=1;" parent="1" vertex="1">
                    <mxGeometry x="740" y="70" width="140" height="180" as="geometry"/>
                </mxCell>
                <mxCell id="6Z9Xi_MxegjO8xXkSZny-2" value="" style="shape=tableRow;horizontal=0;startSize=0;swimlaneHead=0;swimlaneBody=0;fillColor=none;collapsible=0;dropTarget=0;points=[[0,0.5],[1,0.5]];portConstraint=eastwest;top=0;left=0;right=0;bottom=1;" parent="6Z9Xi_MxegjO8xXkSZny-1" vertex="1">
                    <mxGeometry y="30" width="140" height="30" as="geometry"/>
                </mxCell>
                <mxCell id="6Z9Xi_MxegjO8xXkSZny-3" value="PK" style="shape=partialRectangle;connectable=0;fillColor=none;top=0;left=0;bottom=0;right=0;fontStyle=1;overflow=hidden;whiteSpace=wrap;html=1;" parent="6Z9Xi_MxegjO8xXkSZny-2" vertex="1">
                    <mxGeometry width="30" height="30" as="geometry">
                        <mxRectangle width="30" height="30" as="alternateBounds"/>
                    </mxGeometry>
                </mxCell>
                <mxCell id="6Z9Xi_MxegjO8xXkSZny-4" value="업체코드" style="shape=partialRectangle;connectable=0;fillColor=none;top=0;left=0;bottom=0;right=0;align=left;spacingLeft=6;fontStyle=5;overflow=hidden;whiteSpace=wrap;html=1;" parent="6Z9Xi_MxegjO8xXkSZny-2" vertex="1">
                    <mxGeometry x="30" width="110" height="30" as="geometry">
                        <mxRectangle width="110" height="30" as="alternateBounds"/>
                    </mxGeometry>
                </mxCell>
                <mxCell id="6Z9Xi_MxegjO8xXkSZny-5" value="" style="shape=tableRow;horizontal=0;startSize=0;swimlaneHead=0;swimlaneBody=0;fillColor=none;collapsible=0;dropTarget=0;points=[[0,0.5],[1,0.5]];portConstraint=eastwest;top=0;left=0;right=0;bottom=0;" parent="6Z9Xi_MxegjO8xXkSZny-1" vertex="1">
                    <mxGeometry y="60" width="140" height="30" as="geometry"/>
                </mxCell>
                <mxCell id="6Z9Xi_MxegjO8xXkSZny-6" value="" style="shape=partialRectangle;connectable=0;fillColor=none;top=0;left=0;bottom=0;right=0;editable=1;overflow=hidden;whiteSpace=wrap;html=1;" parent="6Z9Xi_MxegjO8xXkSZny-5" vertex="1">
                    <mxGeometry width="30" height="30" as="geometry">
                        <mxRectangle width="30" height="30" as="alternateBounds"/>
                    </mxGeometry>
                </mxCell>
                <mxCell id="6Z9Xi_MxegjO8xXkSZny-7" value="업체명" style="shape=partialRectangle;connectable=0;fillColor=none;top=0;left=0;bottom=0;right=0;align=left;spacingLeft=6;overflow=hidden;whiteSpace=wrap;html=1;" parent="6Z9Xi_MxegjO8xXkSZny-5" vertex="1">
                    <mxGeometry x="30" width="110" height="30" as="geometry">
                        <mxRectangle width="110" height="30" as="alternateBounds"/>
                    </mxGeometry>
                </mxCell>
                <mxCell id="6Z9Xi_MxegjO8xXkSZny-8" value="" style="shape=tableRow;horizontal=0;startSize=0;swimlaneHead=0;swimlaneBody=0;fillColor=none;collapsible=0;dropTarget=0;points=[[0,0.5],[1,0.5]];portConstraint=eastwest;top=0;left=0;right=0;bottom=0;" parent="6Z9Xi_MxegjO8xXkSZny-1" vertex="1">
                    <mxGeometry y="90" width="140" height="30" as="geometry"/>
                </mxCell>
                <mxCell id="6Z9Xi_MxegjO8xXkSZny-9" value="" style="shape=partialRectangle;connectable=0;fillColor=none;top=0;left=0;bottom=0;right=0;editable=1;overflow=hidden;whiteSpace=wrap;html=1;" parent="6Z9Xi_MxegjO8xXkSZny-8" vertex="1">
                    <mxGeometry width="30" height="30" as="geometry">
                        <mxRectangle width="30" height="30" as="alternateBounds"/>
                    </mxGeometry>
                </mxCell>
                <mxCell id="6Z9Xi_MxegjO8xXkSZny-10" value="전화번호" style="shape=partialRectangle;connectable=0;fillColor=none;top=0;left=0;bottom=0;right=0;align=left;spacingLeft=6;overflow=hidden;whiteSpace=wrap;html=1;" parent="6Z9Xi_MxegjO8xXkSZny-8" vertex="1">
                    <mxGeometry x="30" width="110" height="30" as="geometry">
                        <mxRectangle width="110" height="30" as="alternateBounds"/>
                    </mxGeometry>
                </mxCell>
                <mxCell id="6Z9Xi_MxegjO8xXkSZny-11" value="" style="shape=tableRow;horizontal=0;startSize=0;swimlaneHead=0;swimlaneBody=0;fillColor=none;collapsible=0;dropTarget=0;points=[[0,0.5],[1,0.5]];portConstraint=eastwest;top=0;left=0;right=0;bottom=0;" parent="6Z9Xi_MxegjO8xXkSZny-1" vertex="1">
                    <mxGeometry y="120" width="140" height="30" as="geometry"/>
                </mxCell>
                <mxCell id="6Z9Xi_MxegjO8xXkSZny-12" value="" style="shape=partialRectangle;connectable=0;fillColor=none;top=0;left=0;bottom=0;right=0;editable=1;overflow=hidden;whiteSpace=wrap;html=1;" parent="6Z9Xi_MxegjO8xXkSZny-11" vertex="1">
                    <mxGeometry width="30" height="30" as="geometry">
                        <mxRectangle width="30" height="30" as="alternateBounds"/>
                    </mxGeometry>
                </mxCell>
                <mxCell id="6Z9Xi_MxegjO8xXkSZny-13" value="위치" style="shape=partialRectangle;connectable=0;fillColor=none;top=0;left=0;bottom=0;right=0;align=left;spacingLeft=6;overflow=hidden;whiteSpace=wrap;html=1;" parent="6Z9Xi_MxegjO8xXkSZny-11" vertex="1">
                    <mxGeometry x="30" width="110" height="30" as="geometry">
                        <mxRectangle width="110" height="30" as="alternateBounds"/>
                    </mxGeometry>
                </mxCell>
                <mxCell id="vKQG5tQtmzhrOWYcKp-G-1" value="" style="shape=tableRow;horizontal=0;startSize=0;swimlaneHead=0;swimlaneBody=0;fillColor=none;collapsible=0;dropTarget=0;points=[[0,0.5],[1,0.5]];portConstraint=eastwest;top=0;left=0;right=0;bottom=0;" parent="6Z9Xi_MxegjO8xXkSZny-1" vertex="1">
                    <mxGeometry y="150" width="140" height="30" as="geometry"/>
                </mxCell>
                <mxCell id="vKQG5tQtmzhrOWYcKp-G-2" value="" style="shape=partialRectangle;connectable=0;fillColor=none;top=0;left=0;bottom=0;right=0;editable=1;overflow=hidden;whiteSpace=wrap;html=1;" parent="vKQG5tQtmzhrOWYcKp-G-1" vertex="1">
                    <mxGeometry width="30" height="30" as="geometry">
                        <mxRectangle width="30" height="30" as="alternateBounds"/>
                    </mxGeometry>
                </mxCell>
                <mxCell id="vKQG5tQtmzhrOWYcKp-G-3" value="담당자" style="shape=partialRectangle;connectable=0;fillColor=none;top=0;left=0;bottom=0;right=0;align=left;spacingLeft=6;overflow=hidden;whiteSpace=wrap;html=1;" parent="vKQG5tQtmzhrOWYcKp-G-1" vertex="1">
                    <mxGeometry x="30" width="110" height="30" as="geometry">
                        <mxRectangle width="110" height="30" as="alternateBounds"/>
                    </mxGeometry>
                </mxCell>
                <mxCell id="EN2rjw1VibZPI0A6L4zf-2" value="&lt;font style=&quot;font-size: 16px; color: light-dark(rgb(255, 0, 0), rgb(237, 237, 237));&quot;&gt;&lt;b style=&quot;&quot;&gt;1:1, N:1 관계는 외래키로 표현 (외래키는 N쪽에 표현)&lt;/b&gt;&lt;/font&gt;&lt;div&gt;&lt;font style=&quot;font-size: 16px; color: light-dark(rgb(255, 0, 0), rgb(237, 237, 237));&quot;&gt;&lt;b style=&quot;&quot;&gt;M:N 테이블로 작성(각각의 기본키를 외래키로 표현)&lt;/b&gt;&lt;/font&gt;&lt;/div&gt;" style="text;strokeColor=none;align=center;fillColor=none;html=1;verticalAlign=middle;whiteSpace=wrap;rounded=0;" parent="1" vertex="1">
                    <mxGeometry x="120" y="-10" width="390" height="70" as="geometry"/>
                </mxCell>
                <mxCell id="EN2rjw1VibZPI0A6L4zf-6" value="주문" style="shape=table;startSize=30;container=1;collapsible=1;childLayout=tableLayout;fixedRows=1;rowLines=0;fontStyle=1;align=center;resizeLast=1;html=1;" parent="1" vertex="1">
                    <mxGeometry x="400" y="70" width="150" height="210" as="geometry"/>
                </mxCell>
                <mxCell id="EN2rjw1VibZPI0A6L4zf-7" value="" style="shape=tableRow;horizontal=0;startSize=0;swimlaneHead=0;swimlaneBody=0;fillColor=none;collapsible=0;dropTarget=0;points=[[0,0.5],[1,0.5]];portConstraint=eastwest;top=0;left=0;right=0;bottom=1;" parent="EN2rjw1VibZPI0A6L4zf-6" vertex="1">
                    <mxGeometry y="30" width="150" height="30" as="geometry"/>
                </mxCell>
                <mxCell id="EN2rjw1VibZPI0A6L4zf-8" value="PK" style="shape=partialRectangle;connectable=0;fillColor=none;top=0;left=0;bottom=0;right=0;fontStyle=1;overflow=hidden;whiteSpace=wrap;html=1;" parent="EN2rjw1VibZPI0A6L4zf-7" vertex="1">
                    <mxGeometry width="30" height="30" as="geometry">
                        <mxRectangle width="30" height="30" as="alternateBounds"/>
                    </mxGeometry>
                </mxCell>
                <mxCell id="EN2rjw1VibZPI0A6L4zf-9" value="주문번호" style="shape=partialRectangle;connectable=0;fillColor=none;top=0;left=0;bottom=0;right=0;align=left;spacingLeft=6;fontStyle=5;overflow=hidden;whiteSpace=wrap;html=1;" parent="EN2rjw1VibZPI0A6L4zf-7" vertex="1">
                    <mxGeometry x="30" width="120" height="30" as="geometry">
                        <mxRectangle width="120" height="30" as="alternateBounds"/>
                    </mxGeometry>
                </mxCell>
                <mxCell id="EN2rjw1VibZPI0A6L4zf-10" value="" style="shape=tableRow;horizontal=0;startSize=0;swimlaneHead=0;swimlaneBody=0;fillColor=none;collapsible=0;dropTarget=0;points=[[0,0.5],[1,0.5]];portConstraint=eastwest;top=0;left=0;right=0;bottom=1;" parent="EN2rjw1VibZPI0A6L4zf-6" vertex="1">
                    <mxGeometry y="60" width="150" height="30" as="geometry"/>
                </mxCell>
                <mxCell id="EN2rjw1VibZPI0A6L4zf-11" value="FK" style="shape=partialRectangle;connectable=0;fillColor=none;top=0;left=0;bottom=0;right=0;fontStyle=1;overflow=hidden;whiteSpace=wrap;html=1;" parent="EN2rjw1VibZPI0A6L4zf-10" vertex="1">
                    <mxGeometry width="30" height="30" as="geometry">
                        <mxRectangle width="30" height="30" as="alternateBounds"/>
                    </mxGeometry>
                </mxCell>
                <mxCell id="EN2rjw1VibZPI0A6L4zf-12" value="상품코드" style="shape=partialRectangle;connectable=0;fillColor=none;top=0;left=0;bottom=0;right=0;align=left;spacingLeft=6;fontStyle=5;overflow=hidden;whiteSpace=wrap;html=1;" parent="EN2rjw1VibZPI0A6L4zf-10" vertex="1">
                    <mxGeometry x="30" width="120" height="30" as="geometry">
                        <mxRectangle width="120" height="30" as="alternateBounds"/>
                    </mxGeometry>
                </mxCell>
                <mxCell id="h9dAkEsQ7ait4WJlw6vP-1" value="" style="shape=tableRow;horizontal=0;startSize=0;swimlaneHead=0;swimlaneBody=0;fillColor=none;collapsible=0;dropTarget=0;points=[[0,0.5],[1,0.5]];portConstraint=eastwest;top=0;left=0;right=0;bottom=1;" parent="EN2rjw1VibZPI0A6L4zf-6" vertex="1">
                    <mxGeometry y="90" width="150" height="30" as="geometry"/>
                </mxCell>
                <mxCell id="h9dAkEsQ7ait4WJlw6vP-2" value="FK" style="shape=partialRectangle;connectable=0;fillColor=none;top=0;left=0;bottom=0;right=0;fontStyle=1;overflow=hidden;whiteSpace=wrap;html=1;" parent="h9dAkEsQ7ait4WJlw6vP-1" vertex="1">
                    <mxGeometry width="30" height="30" as="geometry">
                        <mxRectangle width="30" height="30" as="alternateBounds"/>
                    </mxGeometry>
                </mxCell>
                <mxCell id="h9dAkEsQ7ait4WJlw6vP-3" value="아이디" style="shape=partialRectangle;connectable=0;fillColor=none;top=0;left=0;bottom=0;right=0;align=left;spacingLeft=6;fontStyle=5;overflow=hidden;whiteSpace=wrap;html=1;" parent="h9dAkEsQ7ait4WJlw6vP-1" vertex="1">
                    <mxGeometry x="30" width="120" height="30" as="geometry">
                        <mxRectangle width="120" height="30" as="alternateBounds"/>
                    </mxGeometry>
                </mxCell>
                <mxCell id="EN2rjw1VibZPI0A6L4zf-13" value="" style="shape=tableRow;horizontal=0;startSize=0;swimlaneHead=0;swimlaneBody=0;fillColor=none;collapsible=0;dropTarget=0;points=[[0,0.5],[1,0.5]];portConstraint=eastwest;top=0;left=0;right=0;bottom=0;" parent="EN2rjw1VibZPI0A6L4zf-6" vertex="1">
                    <mxGeometry y="120" width="150" height="30" as="geometry"/>
                </mxCell>
                <mxCell id="EN2rjw1VibZPI0A6L4zf-14" value="" style="shape=partialRectangle;connectable=0;fillColor=none;top=0;left=0;bottom=0;right=0;editable=1;overflow=hidden;whiteSpace=wrap;html=1;" parent="EN2rjw1VibZPI0A6L4zf-13" vertex="1">
                    <mxGeometry width="30" height="30" as="geometry">
                        <mxRectangle width="30" height="30" as="alternateBounds"/>
                    </mxGeometry>
                </mxCell>
                <mxCell id="EN2rjw1VibZPI0A6L4zf-15" value="주문수량" style="shape=partialRectangle;connectable=0;fillColor=none;top=0;left=0;bottom=0;right=0;align=left;spacingLeft=6;overflow=hidden;whiteSpace=wrap;html=1;" parent="EN2rjw1VibZPI0A6L4zf-13" vertex="1">
                    <mxGeometry x="30" width="120" height="30" as="geometry">
                        <mxRectangle width="120" height="30" as="alternateBounds"/>
                    </mxGeometry>
                </mxCell>
                <mxCell id="EN2rjw1VibZPI0A6L4zf-16" value="" style="shape=tableRow;horizontal=0;startSize=0;swimlaneHead=0;swimlaneBody=0;fillColor=none;collapsible=0;dropTarget=0;points=[[0,0.5],[1,0.5]];portConstraint=eastwest;top=0;left=0;right=0;bottom=0;" parent="EN2rjw1VibZPI0A6L4zf-6" vertex="1">
                    <mxGeometry y="150" width="150" height="30" as="geometry"/>
                </mxCell>
                <mxCell id="EN2rjw1VibZPI0A6L4zf-17" value="" style="shape=partialRectangle;connectable=0;fillColor=none;top=0;left=0;bottom=0;right=0;editable=1;overflow=hidden;whiteSpace=wrap;html=1;" parent="EN2rjw1VibZPI0A6L4zf-16" vertex="1">
                    <mxGeometry width="30" height="30" as="geometry">
                        <mxRectangle width="30" height="30" as="alternateBounds"/>
                    </mxGeometry>
                </mxCell>
                <mxCell id="EN2rjw1VibZPI0A6L4zf-18" value="배송지" style="shape=partialRectangle;connectable=0;fillColor=none;top=0;left=0;bottom=0;right=0;align=left;spacingLeft=6;overflow=hidden;whiteSpace=wrap;html=1;" parent="EN2rjw1VibZPI0A6L4zf-16" vertex="1">
                    <mxGeometry x="30" width="120" height="30" as="geometry">
                        <mxRectangle width="120" height="30" as="alternateBounds"/>
                    </mxGeometry>
                </mxCell>
                <mxCell id="EN2rjw1VibZPI0A6L4zf-19" value="" style="shape=tableRow;horizontal=0;startSize=0;swimlaneHead=0;swimlaneBody=0;fillColor=none;collapsible=0;dropTarget=0;points=[[0,0.5],[1,0.5]];portConstraint=eastwest;top=0;left=0;right=0;bottom=0;" parent="EN2rjw1VibZPI0A6L4zf-6" vertex="1">
                    <mxGeometry y="180" width="150" height="30" as="geometry"/>
                </mxCell>
                <mxCell id="EN2rjw1VibZPI0A6L4zf-20" value="" style="shape=partialRectangle;connectable=0;fillColor=none;top=0;left=0;bottom=0;right=0;editable=1;overflow=hidden;whiteSpace=wrap;html=1;" parent="EN2rjw1VibZPI0A6L4zf-19" vertex="1">
                    <mxGeometry width="30" height="30" as="geometry">
                        <mxRectangle width="30" height="30" as="alternateBounds"/>
                    </mxGeometry>
                </mxCell>
                <mxCell id="EN2rjw1VibZPI0A6L4zf-21" value="주문일자" style="shape=partialRectangle;connectable=0;fillColor=none;top=0;left=0;bottom=0;right=0;align=left;spacingLeft=6;overflow=hidden;whiteSpace=wrap;html=1;" parent="EN2rjw1VibZPI0A6L4zf-19" vertex="1">
                    <mxGeometry x="30" width="120" height="30" as="geometry">
                        <mxRectangle width="120" height="30" as="alternateBounds"/>
                    </mxGeometry>
                </mxCell>
            </root>
        </mxGraphModel>
    </diagram>
    <diagram id="52--1n4FWP5uHF1HuuNy" name="학사관리 시스템">
        <mxGraphModel dx="785" dy="1732" grid="1" gridSize="10" guides="1" tooltips="1" connect="1" arrows="1" fold="1" page="1" pageScale="1" pageWidth="827" pageHeight="1169" math="0" shadow="0">
            <root>
                <mxCell id="0"/>
                <mxCell id="1" parent="0"/>
                <mxCell id="tNMAEM8QhyprLHd65APR-2" style="edgeStyle=none;html=1;entryX=0.5;entryY=1;entryDx=0;entryDy=0;exitX=0;exitY=0.5;exitDx=0;exitDy=0;" parent="1" source="Tr5NxWmpZmW1KebJc1Jn-1" target="Tr5NxWmpZmW1KebJc1Jn-2" edge="1">
                    <mxGeometry relative="1" as="geometry">
                        <mxPoint x="170" y="150" as="sourcePoint"/>
                    </mxGeometry>
                </mxCell>
                <mxCell id="tNMAEM8QhyprLHd65APR-3" style="edgeStyle=none;html=1;entryX=0.5;entryY=0;entryDx=0;entryDy=0;exitX=0.5;exitY=1;exitDx=0;exitDy=0;" parent="1" source="Tr5NxWmpZmW1KebJc1Jn-1" target="Tr5NxWmpZmW1KebJc1Jn-3" edge="1">
                    <mxGeometry relative="1" as="geometry">
                        <mxPoint x="270" y="120" as="sourcePoint"/>
                    </mxGeometry>
                </mxCell>
                <mxCell id="tNMAEM8QhyprLHd65APR-4" style="edgeStyle=none;html=1;exitX=0;exitY=0.5;exitDx=0;exitDy=0;entryX=1;entryY=0.5;entryDx=0;entryDy=0;" parent="1" source="Tr5NxWmpZmW1KebJc1Jn-1" target="Tr5NxWmpZmW1KebJc1Jn-4" edge="1">
                    <mxGeometry relative="1" as="geometry"/>
                </mxCell>
                <mxCell id="tNMAEM8QhyprLHd65APR-5" style="edgeStyle=none;html=1;exitX=0;exitY=0.5;exitDx=0;exitDy=0;entryX=0.5;entryY=0;entryDx=0;entryDy=0;" parent="1" source="Tr5NxWmpZmW1KebJc1Jn-1" target="Tr5NxWmpZmW1KebJc1Jn-5" edge="1">
                    <mxGeometry relative="1" as="geometry"/>
                </mxCell>
                <mxCell id="Tr5NxWmpZmW1KebJc1Jn-1" value="학생" style="whiteSpace=wrap;html=1;align=center;" parent="1" vertex="1">
                    <mxGeometry x="170" y="130" width="100" height="40" as="geometry"/>
                </mxCell>
                <mxCell id="Tr5NxWmpZmW1KebJc1Jn-2" value="학번" style="ellipse;whiteSpace=wrap;html=1;align=center;fontStyle=4;" parent="1" vertex="1">
                    <mxGeometry x="10" y="65" width="100" height="40" as="geometry"/>
                </mxCell>
                <mxCell id="Tr5NxWmpZmW1KebJc1Jn-3" value="이름" style="ellipse;whiteSpace=wrap;html=1;align=center;" parent="1" vertex="1">
                    <mxGeometry x="170" y="200" width="100" height="40" as="geometry"/>
                </mxCell>
                <mxCell id="Tr5NxWmpZmW1KebJc1Jn-4" value="키" style="ellipse;whiteSpace=wrap;html=1;align=center;" parent="1" vertex="1">
                    <mxGeometry x="10" y="130" width="100" height="40" as="geometry"/>
                </mxCell>
                <mxCell id="Tr5NxWmpZmW1KebJc1Jn-5" value="학과코드" style="ellipse;whiteSpace=wrap;html=1;align=center;" parent="1" vertex="1">
                    <mxGeometry x="60" y="200" width="100" height="40" as="geometry"/>
                </mxCell>
                <mxCell id="tNMAEM8QhyprLHd65APR-9" style="edgeStyle=none;html=1;exitX=0.5;exitY=1;exitDx=0;exitDy=0;entryX=0.5;entryY=0;entryDx=0;entryDy=0;" parent="1" source="tNMAEM8QhyprLHd65APR-6" target="tNMAEM8QhyprLHd65APR-7" edge="1">
                    <mxGeometry relative="1" as="geometry"/>
                </mxCell>
                <mxCell id="tNMAEM8QhyprLHd65APR-10" style="edgeStyle=none;html=1;exitX=0.5;exitY=1;exitDx=0;exitDy=0;entryX=0.5;entryY=0;entryDx=0;entryDy=0;" parent="1" source="tNMAEM8QhyprLHd65APR-6" target="tNMAEM8QhyprLHd65APR-8" edge="1">
                    <mxGeometry relative="1" as="geometry"/>
                </mxCell>
                <mxCell id="tNMAEM8QhyprLHd65APR-6" value="학과" style="whiteSpace=wrap;html=1;align=center;" parent="1" vertex="1">
                    <mxGeometry x="450" y="140" width="100" height="45" as="geometry"/>
                </mxCell>
                <mxCell id="tNMAEM8QhyprLHd65APR-7" value="학과코드" style="ellipse;whiteSpace=wrap;html=1;align=center;fontStyle=4;" parent="1" vertex="1">
                    <mxGeometry x="434" y="250" width="100" height="40" as="geometry"/>
                </mxCell>
                <mxCell id="tNMAEM8QhyprLHd65APR-8" value="학과명" style="ellipse;whiteSpace=wrap;html=1;align=center;" parent="1" vertex="1">
                    <mxGeometry x="554" y="250" width="100" height="40" as="geometry"/>
                </mxCell>
                <mxCell id="tNMAEM8QhyprLHd65APR-16" style="edgeStyle=none;html=1;exitX=1;exitY=0.5;exitDx=0;exitDy=0;entryX=0;entryY=0.5;entryDx=0;entryDy=0;" parent="1" source="tNMAEM8QhyprLHd65APR-11" target="tNMAEM8QhyprLHd65APR-12" edge="1">
                    <mxGeometry relative="1" as="geometry"/>
                </mxCell>
                <mxCell id="tNMAEM8QhyprLHd65APR-17" style="edgeStyle=none;html=1;exitX=1;exitY=0.5;exitDx=0;exitDy=0;entryX=0;entryY=0.5;entryDx=0;entryDy=0;" parent="1" source="tNMAEM8QhyprLHd65APR-11" target="tNMAEM8QhyprLHd65APR-13" edge="1">
                    <mxGeometry relative="1" as="geometry"/>
                </mxCell>
                <mxCell id="tNMAEM8QhyprLHd65APR-18" style="edgeStyle=none;html=1;exitX=1;exitY=0.5;exitDx=0;exitDy=0;entryX=0;entryY=0.5;entryDx=0;entryDy=0;" parent="1" source="tNMAEM8QhyprLHd65APR-11" target="tNMAEM8QhyprLHd65APR-15" edge="1">
                    <mxGeometry relative="1" as="geometry"/>
                </mxCell>
                <mxCell id="tNMAEM8QhyprLHd65APR-11" value="교수" style="whiteSpace=wrap;html=1;align=center;" parent="1" vertex="1">
                    <mxGeometry x="460.19" y="-50" width="100" height="40" as="geometry"/>
                </mxCell>
                <mxCell id="tNMAEM8QhyprLHd65APR-12" value="교수코드" style="ellipse;whiteSpace=wrap;html=1;align=center;fontStyle=4;" parent="1" vertex="1">
                    <mxGeometry x="586.19" y="-90" width="100" height="40" as="geometry"/>
                </mxCell>
                <mxCell id="tNMAEM8QhyprLHd65APR-13" value="교수명" style="ellipse;whiteSpace=wrap;html=1;align=center;" parent="1" vertex="1">
                    <mxGeometry x="586.19" y="-35" width="100" height="40" as="geometry"/>
                </mxCell>
                <mxCell id="tNMAEM8QhyprLHd65APR-15" value="학과코드" style="ellipse;whiteSpace=wrap;html=1;align=center;" parent="1" vertex="1">
                    <mxGeometry x="586.19" y="15" width="100" height="40" as="geometry"/>
                </mxCell>
                <mxCell id="tNMAEM8QhyprLHd65APR-19" style="edgeStyle=none;html=1;exitX=0.5;exitY=0;exitDx=0;exitDy=0;entryX=0;entryY=0.5;entryDx=0;entryDy=0;" parent="1" source="tNMAEM8QhyprLHd65APR-23" target="tNMAEM8QhyprLHd65APR-24" edge="1">
                    <mxGeometry relative="1" as="geometry"/>
                </mxCell>
                <mxCell id="tNMAEM8QhyprLHd65APR-20" style="edgeStyle=none;html=1;exitX=0.5;exitY=0;exitDx=0;exitDy=0;entryX=0;entryY=0.5;entryDx=0;entryDy=0;" parent="1" source="tNMAEM8QhyprLHd65APR-23" target="tNMAEM8QhyprLHd65APR-25" edge="1">
                    <mxGeometry relative="1" as="geometry"/>
                </mxCell>
                <mxCell id="tNMAEM8QhyprLHd65APR-21" style="edgeStyle=none;html=1;exitX=0.5;exitY=0;exitDx=0;exitDy=0;entryX=0;entryY=0.5;entryDx=0;entryDy=0;" parent="1" source="tNMAEM8QhyprLHd65APR-23" target="tNMAEM8QhyprLHd65APR-26" edge="1">
                    <mxGeometry relative="1" as="geometry"/>
                </mxCell>
                <mxCell id="tNMAEM8QhyprLHd65APR-22" style="edgeStyle=none;html=1;exitX=0.5;exitY=0;exitDx=0;exitDy=0;entryX=0;entryY=0.5;entryDx=0;entryDy=0;" parent="1" source="tNMAEM8QhyprLHd65APR-23" target="tNMAEM8QhyprLHd65APR-27" edge="1">
                    <mxGeometry relative="1" as="geometry"/>
                </mxCell>
                <mxCell id="tNMAEM8QhyprLHd65APR-29" style="edgeStyle=none;html=1;exitX=0.5;exitY=0;exitDx=0;exitDy=0;entryX=0;entryY=0.5;entryDx=0;entryDy=0;" parent="1" source="tNMAEM8QhyprLHd65APR-23" target="tNMAEM8QhyprLHd65APR-28" edge="1">
                    <mxGeometry relative="1" as="geometry"/>
                </mxCell>
                <mxCell id="tNMAEM8QhyprLHd65APR-23" value="개설과목" style="whiteSpace=wrap;html=1;align=center;" parent="1" vertex="1">
                    <mxGeometry x="170" y="-70" width="100" height="40" as="geometry"/>
                </mxCell>
                <mxCell id="tNMAEM8QhyprLHd65APR-24" value="과목코드" style="ellipse;whiteSpace=wrap;html=1;align=center;fontStyle=4;" parent="1" vertex="1">
                    <mxGeometry x="80" y="-210" width="100" height="40" as="geometry"/>
                </mxCell>
                <mxCell id="tNMAEM8QhyprLHd65APR-25" value="과목명" style="ellipse;whiteSpace=wrap;html=1;align=center;" parent="1" vertex="1">
                    <mxGeometry x="190" y="-210" width="100" height="40" as="geometry"/>
                </mxCell>
                <mxCell id="tNMAEM8QhyprLHd65APR-26" value="교수코드" style="ellipse;whiteSpace=wrap;html=1;align=center;" parent="1" vertex="1">
                    <mxGeometry x="314" y="-210" width="100" height="40" as="geometry"/>
                </mxCell>
                <mxCell id="tNMAEM8QhyprLHd65APR-27" value="시작일" style="ellipse;whiteSpace=wrap;html=1;align=center;" parent="1" vertex="1">
                    <mxGeometry x="434" y="-210" width="100" height="40" as="geometry"/>
                </mxCell>
                <mxCell id="tNMAEM8QhyprLHd65APR-28" value="종료일" style="ellipse;whiteSpace=wrap;html=1;align=center;" parent="1" vertex="1">
                    <mxGeometry x="550" y="-210" width="100" height="40" as="geometry"/>
                </mxCell>
                <mxCell id="tNMAEM8QhyprLHd65APR-30" style="edgeStyle=none;html=1;exitX=0;exitY=0.5;exitDx=0;exitDy=0;entryX=1;entryY=0.5;entryDx=0;entryDy=0;" parent="1" source="pBhA_BNkZYrWPU9Txpy6-1" target="tNMAEM8QhyprLHd65APR-33" edge="1">
                    <mxGeometry relative="1" as="geometry">
                        <mxPoint x="560" y="105" as="sourcePoint"/>
                    </mxGeometry>
                </mxCell>
                <mxCell id="tNMAEM8QhyprLHd65APR-31" style="edgeStyle=none;html=1;exitX=0;exitY=0.5;exitDx=0;exitDy=0;entryX=1;entryY=0.5;entryDx=0;entryDy=0;" parent="1" source="pBhA_BNkZYrWPU9Txpy6-1" target="tNMAEM8QhyprLHd65APR-34" edge="1">
                    <mxGeometry relative="1" as="geometry">
                        <mxPoint x="560" y="105" as="sourcePoint"/>
                    </mxGeometry>
                </mxCell>
                <mxCell id="tNMAEM8QhyprLHd65APR-36" style="edgeStyle=none;html=1;exitX=0;exitY=0.5;exitDx=0;exitDy=0;entryX=1;entryY=0.5;entryDx=0;entryDy=0;" parent="1" source="pBhA_BNkZYrWPU9Txpy6-1" target="tNMAEM8QhyprLHd65APR-35" edge="1">
                    <mxGeometry relative="1" as="geometry">
                        <mxPoint x="560" y="105" as="sourcePoint"/>
                    </mxGeometry>
                </mxCell>
                <mxCell id="tNMAEM8QhyprLHd65APR-33" value="수강번호" style="ellipse;whiteSpace=wrap;html=1;align=center;fontStyle=4;" parent="1" vertex="1">
                    <mxGeometry x="30" y="-150" width="100" height="40" as="geometry"/>
                </mxCell>
                <mxCell id="tNMAEM8QhyprLHd65APR-34" value="과목코드" style="ellipse;whiteSpace=wrap;html=1;align=center;" parent="1" vertex="1">
                    <mxGeometry x="30" y="-50" width="100" height="40" as="geometry"/>
                </mxCell>
                <mxCell id="tNMAEM8QhyprLHd65APR-35" value="수강일자" style="ellipse;whiteSpace=wrap;html=1;align=center;" parent="1" vertex="1">
                    <mxGeometry x="30" width="100" height="40" as="geometry"/>
                </mxCell>
                <mxCell id="_nDhOlc3bqFAFrNPeKih-1" value="" style="endArrow=none;html=1;rounded=0;exitX=1;exitY=0.5;exitDx=0;exitDy=0;entryX=0;entryY=0.5;entryDx=0;entryDy=0;" parent="1" source="_nDhOlc3bqFAFrNPeKih-25" target="tNMAEM8QhyprLHd65APR-6" edge="1">
                    <mxGeometry relative="1" as="geometry">
                        <mxPoint x="150" y="220" as="sourcePoint"/>
                        <mxPoint x="310" y="220" as="targetPoint"/>
                    </mxGeometry>
                </mxCell>
                <mxCell id="_nDhOlc3bqFAFrNPeKih-3" value="1" style="resizable=0;html=1;whiteSpace=wrap;align=right;verticalAlign=bottom;" parent="_nDhOlc3bqFAFrNPeKih-1" connectable="0" vertex="1">
                    <mxGeometry x="1" relative="1" as="geometry"/>
                </mxCell>
                <mxCell id="_nDhOlc3bqFAFrNPeKih-4" value="" style="endArrow=none;html=1;rounded=0;exitX=0.5;exitY=0;exitDx=0;exitDy=0;entryX=0.5;entryY=1;entryDx=0;entryDy=0;" parent="1" source="pBhA_BNkZYrWPU9Txpy6-1" target="tNMAEM8QhyprLHd65APR-23" edge="1">
                    <mxGeometry relative="1" as="geometry">
                        <mxPoint x="280" y="160" as="sourcePoint"/>
                        <mxPoint x="330" y="160" as="targetPoint"/>
                    </mxGeometry>
                </mxCell>
                <mxCell id="_nDhOlc3bqFAFrNPeKih-6" value="N" style="resizable=0;html=1;whiteSpace=wrap;align=right;verticalAlign=bottom;" parent="_nDhOlc3bqFAFrNPeKih-4" connectable="0" vertex="1">
                    <mxGeometry x="1" relative="1" as="geometry">
                        <mxPoint y="21" as="offset"/>
                    </mxGeometry>
                </mxCell>
                <mxCell id="_nDhOlc3bqFAFrNPeKih-7" value="" style="endArrow=none;html=1;rounded=0;exitX=0.5;exitY=0;exitDx=0;exitDy=0;entryX=0.5;entryY=1;entryDx=0;entryDy=0;" parent="1" source="Tr5NxWmpZmW1KebJc1Jn-1" target="pBhA_BNkZYrWPU9Txpy6-1" edge="1">
                    <mxGeometry relative="1" as="geometry">
                        <mxPoint x="220" y="130" as="sourcePoint"/>
                        <mxPoint x="220" y="-30" as="targetPoint"/>
                    </mxGeometry>
                </mxCell>
                <mxCell id="_nDhOlc3bqFAFrNPeKih-8" value="M" style="resizable=0;html=1;whiteSpace=wrap;align=left;verticalAlign=bottom;" parent="_nDhOlc3bqFAFrNPeKih-7" connectable="0" vertex="1">
                    <mxGeometry x="-1" relative="1" as="geometry"/>
                </mxCell>
                <mxCell id="YQibLl6lxwCYJto6A8t_-2" style="edgeStyle=none;html=1;exitX=0;exitY=0.5;exitDx=0;exitDy=0;entryX=1;entryY=0.5;entryDx=0;entryDy=0;" edge="1" parent="1" source="pBhA_BNkZYrWPU9Txpy6-1" target="YQibLl6lxwCYJto6A8t_-1">
                    <mxGeometry relative="1" as="geometry"/>
                </mxCell>
                <mxCell id="pBhA_BNkZYrWPU9Txpy6-1" value="수강" style="shape=rhombus;perimeter=rhombusPerimeter;whiteSpace=wrap;html=1;align=center;" parent="1" vertex="1">
                    <mxGeometry x="160" y="20" width="120" height="60" as="geometry"/>
                </mxCell>
                <mxCell id="_nDhOlc3bqFAFrNPeKih-10" value="" style="endArrow=none;html=1;rounded=0;exitX=1;exitY=0.5;exitDx=0;exitDy=0;entryX=0;entryY=0.5;entryDx=0;entryDy=0;" parent="1" source="_nDhOlc3bqFAFrNPeKih-17" target="tNMAEM8QhyprLHd65APR-11" edge="1">
                    <mxGeometry relative="1" as="geometry">
                        <mxPoint x="280" y="160" as="sourcePoint"/>
                        <mxPoint x="380" y="160" as="targetPoint"/>
                    </mxGeometry>
                </mxCell>
                <mxCell id="_nDhOlc3bqFAFrNPeKih-12" value="1" style="resizable=0;html=1;whiteSpace=wrap;align=right;verticalAlign=bottom;" parent="_nDhOlc3bqFAFrNPeKih-10" connectable="0" vertex="1">
                    <mxGeometry x="1" relative="1" as="geometry"/>
                </mxCell>
                <mxCell id="_nDhOlc3bqFAFrNPeKih-13" value="" style="endArrow=none;html=1;rounded=0;exitX=0.5;exitY=1;exitDx=0;exitDy=0;entryX=0.5;entryY=0;entryDx=0;entryDy=0;" parent="1" source="_nDhOlc3bqFAFrNPeKih-21" target="tNMAEM8QhyprLHd65APR-6" edge="1">
                    <mxGeometry relative="1" as="geometry">
                        <mxPoint x="280" y="-40" as="sourcePoint"/>
                        <mxPoint x="380" y="15" as="targetPoint"/>
                    </mxGeometry>
                </mxCell>
                <mxCell id="_nDhOlc3bqFAFrNPeKih-15" value="1" style="resizable=0;html=1;whiteSpace=wrap;align=right;verticalAlign=bottom;" parent="_nDhOlc3bqFAFrNPeKih-13" connectable="0" vertex="1">
                    <mxGeometry x="1" relative="1" as="geometry"/>
                </mxCell>
                <mxCell id="_nDhOlc3bqFAFrNPeKih-18" value="" style="endArrow=none;html=1;rounded=0;exitX=1;exitY=0.5;exitDx=0;exitDy=0;entryX=0;entryY=0.5;entryDx=0;entryDy=0;" parent="1" source="tNMAEM8QhyprLHd65APR-23" target="_nDhOlc3bqFAFrNPeKih-17" edge="1">
                    <mxGeometry relative="1" as="geometry">
                        <mxPoint x="270" y="-50" as="sourcePoint"/>
                        <mxPoint x="460" y="-30" as="targetPoint"/>
                    </mxGeometry>
                </mxCell>
                <mxCell id="_nDhOlc3bqFAFrNPeKih-19" value="N" style="resizable=0;html=1;whiteSpace=wrap;align=left;verticalAlign=bottom;" parent="_nDhOlc3bqFAFrNPeKih-18" connectable="0" vertex="1">
                    <mxGeometry x="-1" relative="1" as="geometry">
                        <mxPoint y="20" as="offset"/>
                    </mxGeometry>
                </mxCell>
                <mxCell id="_nDhOlc3bqFAFrNPeKih-17" value="강의" style="shape=rhombus;perimeter=rhombusPerimeter;whiteSpace=wrap;html=1;align=center;" parent="1" vertex="1">
                    <mxGeometry x="314" y="-70" width="120" height="60" as="geometry"/>
                </mxCell>
                <mxCell id="_nDhOlc3bqFAFrNPeKih-22" value="" style="endArrow=none;html=1;rounded=0;exitX=0.5;exitY=1;exitDx=0;exitDy=0;entryX=0.5;entryY=0;entryDx=0;entryDy=0;" parent="1" source="tNMAEM8QhyprLHd65APR-11" target="_nDhOlc3bqFAFrNPeKih-21" edge="1">
                    <mxGeometry relative="1" as="geometry">
                        <mxPoint x="510" y="-10" as="sourcePoint"/>
                        <mxPoint x="420" y="128" as="targetPoint"/>
                    </mxGeometry>
                </mxCell>
                <mxCell id="_nDhOlc3bqFAFrNPeKih-23" value="N" style="resizable=0;html=1;whiteSpace=wrap;align=left;verticalAlign=bottom;" parent="_nDhOlc3bqFAFrNPeKih-22" connectable="0" vertex="1">
                    <mxGeometry x="-1" relative="1" as="geometry">
                        <mxPoint y="20" as="offset"/>
                    </mxGeometry>
                </mxCell>
                <mxCell id="_nDhOlc3bqFAFrNPeKih-21" value="소속" style="shape=rhombus;perimeter=rhombusPerimeter;whiteSpace=wrap;html=1;align=center;" parent="1" vertex="1">
                    <mxGeometry x="440.19" y="30" width="120" height="60" as="geometry"/>
                </mxCell>
                <mxCell id="_nDhOlc3bqFAFrNPeKih-26" value="" style="endArrow=none;html=1;rounded=0;exitX=1;exitY=0.5;exitDx=0;exitDy=0;entryX=0;entryY=0.5;entryDx=0;entryDy=0;" parent="1" source="Tr5NxWmpZmW1KebJc1Jn-1" target="_nDhOlc3bqFAFrNPeKih-25" edge="1">
                    <mxGeometry relative="1" as="geometry">
                        <mxPoint x="270" y="150" as="sourcePoint"/>
                        <mxPoint x="370" y="150" as="targetPoint"/>
                    </mxGeometry>
                </mxCell>
                <mxCell id="_nDhOlc3bqFAFrNPeKih-27" value="N" style="resizable=0;html=1;whiteSpace=wrap;align=left;verticalAlign=bottom;" parent="_nDhOlc3bqFAFrNPeKih-26" connectable="0" vertex="1">
                    <mxGeometry x="-1" relative="1" as="geometry"/>
                </mxCell>
                <mxCell id="_nDhOlc3bqFAFrNPeKih-25" value="소속" style="shape=rhombus;perimeter=rhombusPerimeter;whiteSpace=wrap;html=1;align=center;" parent="1" vertex="1">
                    <mxGeometry x="304" y="130" width="120" height="60" as="geometry"/>
                </mxCell>
                <mxCell id="YQibLl6lxwCYJto6A8t_-1" value="학번" style="ellipse;whiteSpace=wrap;html=1;align=center;" vertex="1" parent="1">
                    <mxGeometry x="30" y="-100" width="100" height="40" as="geometry"/>
                </mxCell>
            </root>
        </mxGraphModel>
    </diagram>
    <diagram id="lTiXdNP997u5T2bQI63t" name="학사관리 시스템 테이블">
        <mxGraphModel dx="785" dy="1732" grid="1" gridSize="10" guides="1" tooltips="1" connect="1" arrows="1" fold="1" page="1" pageScale="1" pageWidth="827" pageHeight="1169" math="0" shadow="0">
            <root>
                <mxCell id="0"/>
                <mxCell id="1" parent="0"/>
                <mxCell id="-QQvSX99Ne1xmVI0-hXL-1" value="학생" style="shape=table;startSize=30;container=1;collapsible=1;childLayout=tableLayout;fixedRows=1;rowLines=0;fontStyle=1;align=center;resizeLast=1;html=1;" vertex="1" parent="1">
                    <mxGeometry x="80" y="-584" width="120" height="150" as="geometry"/>
                </mxCell>
                <mxCell id="-QQvSX99Ne1xmVI0-hXL-2" value="" style="shape=tableRow;horizontal=0;startSize=0;swimlaneHead=0;swimlaneBody=0;fillColor=none;collapsible=0;dropTarget=0;points=[[0,0.5],[1,0.5]];portConstraint=eastwest;top=0;left=0;right=0;bottom=1;" vertex="1" parent="-QQvSX99Ne1xmVI0-hXL-1">
                    <mxGeometry y="30" width="120" height="30" as="geometry"/>
                </mxCell>
                <mxCell id="-QQvSX99Ne1xmVI0-hXL-3" value="PK" style="shape=partialRectangle;connectable=0;fillColor=none;top=0;left=0;bottom=0;right=0;fontStyle=1;overflow=hidden;whiteSpace=wrap;html=1;" vertex="1" parent="-QQvSX99Ne1xmVI0-hXL-2">
                    <mxGeometry width="30" height="30" as="geometry">
                        <mxRectangle width="30" height="30" as="alternateBounds"/>
                    </mxGeometry>
                </mxCell>
                <mxCell id="-QQvSX99Ne1xmVI0-hXL-4" value="학번" style="shape=partialRectangle;connectable=0;fillColor=none;top=0;left=0;bottom=0;right=0;align=left;spacingLeft=6;fontStyle=5;overflow=hidden;whiteSpace=wrap;html=1;" vertex="1" parent="-QQvSX99Ne1xmVI0-hXL-2">
                    <mxGeometry x="30" width="90" height="30" as="geometry">
                        <mxRectangle width="90" height="30" as="alternateBounds"/>
                    </mxGeometry>
                </mxCell>
                <mxCell id="DJC9XcJCh482iCNHapqp-1" value="" style="shape=tableRow;horizontal=0;startSize=0;swimlaneHead=0;swimlaneBody=0;fillColor=none;collapsible=0;dropTarget=0;points=[[0,0.5],[1,0.5]];portConstraint=eastwest;top=0;left=0;right=0;bottom=1;" vertex="1" parent="-QQvSX99Ne1xmVI0-hXL-1">
                    <mxGeometry y="60" width="120" height="30" as="geometry"/>
                </mxCell>
                <mxCell id="DJC9XcJCh482iCNHapqp-2" value="FK" style="shape=partialRectangle;connectable=0;fillColor=none;top=0;left=0;bottom=0;right=0;fontStyle=1;overflow=hidden;whiteSpace=wrap;html=1;" vertex="1" parent="DJC9XcJCh482iCNHapqp-1">
                    <mxGeometry width="30" height="30" as="geometry">
                        <mxRectangle width="30" height="30" as="alternateBounds"/>
                    </mxGeometry>
                </mxCell>
                <mxCell id="DJC9XcJCh482iCNHapqp-3" value="학과코드" style="shape=partialRectangle;connectable=0;fillColor=none;top=0;left=0;bottom=0;right=0;align=left;spacingLeft=6;fontStyle=5;overflow=hidden;whiteSpace=wrap;html=1;" vertex="1" parent="DJC9XcJCh482iCNHapqp-1">
                    <mxGeometry x="30" width="90" height="30" as="geometry">
                        <mxRectangle width="90" height="30" as="alternateBounds"/>
                    </mxGeometry>
                </mxCell>
                <mxCell id="-QQvSX99Ne1xmVI0-hXL-5" value="" style="shape=tableRow;horizontal=0;startSize=0;swimlaneHead=0;swimlaneBody=0;fillColor=none;collapsible=0;dropTarget=0;points=[[0,0.5],[1,0.5]];portConstraint=eastwest;top=0;left=0;right=0;bottom=0;" vertex="1" parent="-QQvSX99Ne1xmVI0-hXL-1">
                    <mxGeometry y="90" width="120" height="30" as="geometry"/>
                </mxCell>
                <mxCell id="-QQvSX99Ne1xmVI0-hXL-6" value="" style="shape=partialRectangle;connectable=0;fillColor=none;top=0;left=0;bottom=0;right=0;editable=1;overflow=hidden;whiteSpace=wrap;html=1;" vertex="1" parent="-QQvSX99Ne1xmVI0-hXL-5">
                    <mxGeometry width="30" height="30" as="geometry">
                        <mxRectangle width="30" height="30" as="alternateBounds"/>
                    </mxGeometry>
                </mxCell>
                <mxCell id="-QQvSX99Ne1xmVI0-hXL-7" value="키" style="shape=partialRectangle;connectable=0;fillColor=none;top=0;left=0;bottom=0;right=0;align=left;spacingLeft=6;overflow=hidden;whiteSpace=wrap;html=1;" vertex="1" parent="-QQvSX99Ne1xmVI0-hXL-5">
                    <mxGeometry x="30" width="90" height="30" as="geometry">
                        <mxRectangle width="90" height="30" as="alternateBounds"/>
                    </mxGeometry>
                </mxCell>
                <mxCell id="-QQvSX99Ne1xmVI0-hXL-8" value="" style="shape=tableRow;horizontal=0;startSize=0;swimlaneHead=0;swimlaneBody=0;fillColor=none;collapsible=0;dropTarget=0;points=[[0,0.5],[1,0.5]];portConstraint=eastwest;top=0;left=0;right=0;bottom=0;" vertex="1" parent="-QQvSX99Ne1xmVI0-hXL-1">
                    <mxGeometry y="120" width="120" height="30" as="geometry"/>
                </mxCell>
                <mxCell id="-QQvSX99Ne1xmVI0-hXL-9" value="" style="shape=partialRectangle;connectable=0;fillColor=none;top=0;left=0;bottom=0;right=0;editable=1;overflow=hidden;whiteSpace=wrap;html=1;" vertex="1" parent="-QQvSX99Ne1xmVI0-hXL-8">
                    <mxGeometry width="30" height="30" as="geometry">
                        <mxRectangle width="30" height="30" as="alternateBounds"/>
                    </mxGeometry>
                </mxCell>
                <mxCell id="-QQvSX99Ne1xmVI0-hXL-10" value="이름" style="shape=partialRectangle;connectable=0;fillColor=none;top=0;left=0;bottom=0;right=0;align=left;spacingLeft=6;overflow=hidden;whiteSpace=wrap;html=1;" vertex="1" parent="-QQvSX99Ne1xmVI0-hXL-8">
                    <mxGeometry x="30" width="90" height="30" as="geometry">
                        <mxRectangle width="90" height="30" as="alternateBounds"/>
                    </mxGeometry>
                </mxCell>
                <mxCell id="CExn7Sm5G1MflYczPHml-1" value="개설과목" style="shape=table;startSize=30;container=1;collapsible=1;childLayout=tableLayout;fixedRows=1;rowLines=0;fontStyle=1;align=center;resizeLast=1;html=1;" vertex="1" parent="1">
                    <mxGeometry x="480" y="-584" width="130" height="180" as="geometry"/>
                </mxCell>
                <mxCell id="CExn7Sm5G1MflYczPHml-2" value="" style="shape=tableRow;horizontal=0;startSize=0;swimlaneHead=0;swimlaneBody=0;fillColor=none;collapsible=0;dropTarget=0;points=[[0,0.5],[1,0.5]];portConstraint=eastwest;top=0;left=0;right=0;bottom=1;" vertex="1" parent="CExn7Sm5G1MflYczPHml-1">
                    <mxGeometry y="30" width="130" height="30" as="geometry"/>
                </mxCell>
                <mxCell id="CExn7Sm5G1MflYczPHml-3" value="PK" style="shape=partialRectangle;connectable=0;fillColor=none;top=0;left=0;bottom=0;right=0;fontStyle=1;overflow=hidden;whiteSpace=wrap;html=1;" vertex="1" parent="CExn7Sm5G1MflYczPHml-2">
                    <mxGeometry width="30" height="30" as="geometry">
                        <mxRectangle width="30" height="30" as="alternateBounds"/>
                    </mxGeometry>
                </mxCell>
                <mxCell id="CExn7Sm5G1MflYczPHml-4" value="과목코드" style="shape=partialRectangle;connectable=0;fillColor=none;top=0;left=0;bottom=0;right=0;align=left;spacingLeft=6;fontStyle=5;overflow=hidden;whiteSpace=wrap;html=1;" vertex="1" parent="CExn7Sm5G1MflYczPHml-2">
                    <mxGeometry x="30" width="100" height="30" as="geometry">
                        <mxRectangle width="100" height="30" as="alternateBounds"/>
                    </mxGeometry>
                </mxCell>
                <mxCell id="1P-_Rz8TrDEtEbSICwxl-1" value="" style="shape=tableRow;horizontal=0;startSize=0;swimlaneHead=0;swimlaneBody=0;fillColor=none;collapsible=0;dropTarget=0;points=[[0,0.5],[1,0.5]];portConstraint=eastwest;top=0;left=0;right=0;bottom=1;" vertex="1" parent="CExn7Sm5G1MflYczPHml-1">
                    <mxGeometry y="60" width="130" height="30" as="geometry"/>
                </mxCell>
                <mxCell id="1P-_Rz8TrDEtEbSICwxl-2" value="FK" style="shape=partialRectangle;connectable=0;fillColor=none;top=0;left=0;bottom=0;right=0;fontStyle=1;overflow=hidden;whiteSpace=wrap;html=1;" vertex="1" parent="1P-_Rz8TrDEtEbSICwxl-1">
                    <mxGeometry width="30" height="30" as="geometry">
                        <mxRectangle width="30" height="30" as="alternateBounds"/>
                    </mxGeometry>
                </mxCell>
                <mxCell id="1P-_Rz8TrDEtEbSICwxl-3" value="교수코드" style="shape=partialRectangle;connectable=0;fillColor=none;top=0;left=0;bottom=0;right=0;align=left;spacingLeft=6;fontStyle=5;overflow=hidden;whiteSpace=wrap;html=1;" vertex="1" parent="1P-_Rz8TrDEtEbSICwxl-1">
                    <mxGeometry x="30" width="100" height="30" as="geometry">
                        <mxRectangle width="100" height="30" as="alternateBounds"/>
                    </mxGeometry>
                </mxCell>
                <mxCell id="CExn7Sm5G1MflYczPHml-5" value="" style="shape=tableRow;horizontal=0;startSize=0;swimlaneHead=0;swimlaneBody=0;fillColor=none;collapsible=0;dropTarget=0;points=[[0,0.5],[1,0.5]];portConstraint=eastwest;top=0;left=0;right=0;bottom=0;" vertex="1" parent="CExn7Sm5G1MflYczPHml-1">
                    <mxGeometry y="90" width="130" height="30" as="geometry"/>
                </mxCell>
                <mxCell id="CExn7Sm5G1MflYczPHml-6" value="" style="shape=partialRectangle;connectable=0;fillColor=none;top=0;left=0;bottom=0;right=0;editable=1;overflow=hidden;whiteSpace=wrap;html=1;" vertex="1" parent="CExn7Sm5G1MflYczPHml-5">
                    <mxGeometry width="30" height="30" as="geometry">
                        <mxRectangle width="30" height="30" as="alternateBounds"/>
                    </mxGeometry>
                </mxCell>
                <mxCell id="CExn7Sm5G1MflYczPHml-7" value="시작일" style="shape=partialRectangle;connectable=0;fillColor=none;top=0;left=0;bottom=0;right=0;align=left;spacingLeft=6;overflow=hidden;whiteSpace=wrap;html=1;" vertex="1" parent="CExn7Sm5G1MflYczPHml-5">
                    <mxGeometry x="30" width="100" height="30" as="geometry">
                        <mxRectangle width="100" height="30" as="alternateBounds"/>
                    </mxGeometry>
                </mxCell>
                <mxCell id="CExn7Sm5G1MflYczPHml-8" value="" style="shape=tableRow;horizontal=0;startSize=0;swimlaneHead=0;swimlaneBody=0;fillColor=none;collapsible=0;dropTarget=0;points=[[0,0.5],[1,0.5]];portConstraint=eastwest;top=0;left=0;right=0;bottom=0;" vertex="1" parent="CExn7Sm5G1MflYczPHml-1">
                    <mxGeometry y="120" width="130" height="30" as="geometry"/>
                </mxCell>
                <mxCell id="CExn7Sm5G1MflYczPHml-9" value="" style="shape=partialRectangle;connectable=0;fillColor=none;top=0;left=0;bottom=0;right=0;editable=1;overflow=hidden;whiteSpace=wrap;html=1;" vertex="1" parent="CExn7Sm5G1MflYczPHml-8">
                    <mxGeometry width="30" height="30" as="geometry">
                        <mxRectangle width="30" height="30" as="alternateBounds"/>
                    </mxGeometry>
                </mxCell>
                <mxCell id="CExn7Sm5G1MflYczPHml-10" value="종료일" style="shape=partialRectangle;connectable=0;fillColor=none;top=0;left=0;bottom=0;right=0;align=left;spacingLeft=6;overflow=hidden;whiteSpace=wrap;html=1;" vertex="1" parent="CExn7Sm5G1MflYczPHml-8">
                    <mxGeometry x="30" width="100" height="30" as="geometry">
                        <mxRectangle width="100" height="30" as="alternateBounds"/>
                    </mxGeometry>
                </mxCell>
                <mxCell id="CExn7Sm5G1MflYczPHml-11" value="" style="shape=tableRow;horizontal=0;startSize=0;swimlaneHead=0;swimlaneBody=0;fillColor=none;collapsible=0;dropTarget=0;points=[[0,0.5],[1,0.5]];portConstraint=eastwest;top=0;left=0;right=0;bottom=0;" vertex="1" parent="CExn7Sm5G1MflYczPHml-1">
                    <mxGeometry y="150" width="130" height="30" as="geometry"/>
                </mxCell>
                <mxCell id="CExn7Sm5G1MflYczPHml-12" value="" style="shape=partialRectangle;connectable=0;fillColor=none;top=0;left=0;bottom=0;right=0;editable=1;overflow=hidden;whiteSpace=wrap;html=1;" vertex="1" parent="CExn7Sm5G1MflYczPHml-11">
                    <mxGeometry width="30" height="30" as="geometry">
                        <mxRectangle width="30" height="30" as="alternateBounds"/>
                    </mxGeometry>
                </mxCell>
                <mxCell id="CExn7Sm5G1MflYczPHml-13" value="과목명" style="shape=partialRectangle;connectable=0;fillColor=none;top=0;left=0;bottom=0;right=0;align=left;spacingLeft=6;overflow=hidden;whiteSpace=wrap;html=1;" vertex="1" parent="CExn7Sm5G1MflYczPHml-11">
                    <mxGeometry x="30" width="100" height="30" as="geometry">
                        <mxRectangle width="100" height="30" as="alternateBounds"/>
                    </mxGeometry>
                </mxCell>
                <mxCell id="CExn7Sm5G1MflYczPHml-14" value="교수" style="shape=table;startSize=30;container=1;collapsible=1;childLayout=tableLayout;fixedRows=1;rowLines=0;fontStyle=1;align=center;resizeLast=1;html=1;" vertex="1" parent="1">
                    <mxGeometry x="340" y="-584" width="120" height="120" as="geometry"/>
                </mxCell>
                <mxCell id="CExn7Sm5G1MflYczPHml-15" value="" style="shape=tableRow;horizontal=0;startSize=0;swimlaneHead=0;swimlaneBody=0;fillColor=none;collapsible=0;dropTarget=0;points=[[0,0.5],[1,0.5]];portConstraint=eastwest;top=0;left=0;right=0;bottom=1;" vertex="1" parent="CExn7Sm5G1MflYczPHml-14">
                    <mxGeometry y="30" width="120" height="30" as="geometry"/>
                </mxCell>
                <mxCell id="CExn7Sm5G1MflYczPHml-16" value="PK" style="shape=partialRectangle;connectable=0;fillColor=none;top=0;left=0;bottom=0;right=0;fontStyle=1;overflow=hidden;whiteSpace=wrap;html=1;" vertex="1" parent="CExn7Sm5G1MflYczPHml-15">
                    <mxGeometry width="30" height="30" as="geometry">
                        <mxRectangle width="30" height="30" as="alternateBounds"/>
                    </mxGeometry>
                </mxCell>
                <mxCell id="CExn7Sm5G1MflYczPHml-17" value="교수코드" style="shape=partialRectangle;connectable=0;fillColor=none;top=0;left=0;bottom=0;right=0;align=left;spacingLeft=6;fontStyle=5;overflow=hidden;whiteSpace=wrap;html=1;" vertex="1" parent="CExn7Sm5G1MflYczPHml-15">
                    <mxGeometry x="30" width="90" height="30" as="geometry">
                        <mxRectangle width="90" height="30" as="alternateBounds"/>
                    </mxGeometry>
                </mxCell>
                <mxCell id="AwM-NIwxj1Jop3KV-Oru-1" value="" style="shape=tableRow;horizontal=0;startSize=0;swimlaneHead=0;swimlaneBody=0;fillColor=none;collapsible=0;dropTarget=0;points=[[0,0.5],[1,0.5]];portConstraint=eastwest;top=0;left=0;right=0;bottom=1;" vertex="1" parent="CExn7Sm5G1MflYczPHml-14">
                    <mxGeometry y="60" width="120" height="30" as="geometry"/>
                </mxCell>
                <mxCell id="AwM-NIwxj1Jop3KV-Oru-2" value="FK" style="shape=partialRectangle;connectable=0;fillColor=none;top=0;left=0;bottom=0;right=0;fontStyle=1;overflow=hidden;whiteSpace=wrap;html=1;" vertex="1" parent="AwM-NIwxj1Jop3KV-Oru-1">
                    <mxGeometry width="30" height="30" as="geometry">
                        <mxRectangle width="30" height="30" as="alternateBounds"/>
                    </mxGeometry>
                </mxCell>
                <mxCell id="AwM-NIwxj1Jop3KV-Oru-3" value="학과코드" style="shape=partialRectangle;connectable=0;fillColor=none;top=0;left=0;bottom=0;right=0;align=left;spacingLeft=6;fontStyle=5;overflow=hidden;whiteSpace=wrap;html=1;" vertex="1" parent="AwM-NIwxj1Jop3KV-Oru-1">
                    <mxGeometry x="30" width="90" height="30" as="geometry">
                        <mxRectangle width="90" height="30" as="alternateBounds"/>
                    </mxGeometry>
                </mxCell>
                <mxCell id="CExn7Sm5G1MflYczPHml-18" value="" style="shape=tableRow;horizontal=0;startSize=0;swimlaneHead=0;swimlaneBody=0;fillColor=none;collapsible=0;dropTarget=0;points=[[0,0.5],[1,0.5]];portConstraint=eastwest;top=0;left=0;right=0;bottom=0;" vertex="1" parent="CExn7Sm5G1MflYczPHml-14">
                    <mxGeometry y="90" width="120" height="30" as="geometry"/>
                </mxCell>
                <mxCell id="CExn7Sm5G1MflYczPHml-19" value="" style="shape=partialRectangle;connectable=0;fillColor=none;top=0;left=0;bottom=0;right=0;editable=1;overflow=hidden;whiteSpace=wrap;html=1;" vertex="1" parent="CExn7Sm5G1MflYczPHml-18">
                    <mxGeometry width="30" height="30" as="geometry">
                        <mxRectangle width="30" height="30" as="alternateBounds"/>
                    </mxGeometry>
                </mxCell>
                <mxCell id="CExn7Sm5G1MflYczPHml-20" value="교수명" style="shape=partialRectangle;connectable=0;fillColor=none;top=0;left=0;bottom=0;right=0;align=left;spacingLeft=6;overflow=hidden;whiteSpace=wrap;html=1;" vertex="1" parent="CExn7Sm5G1MflYczPHml-18">
                    <mxGeometry x="30" width="90" height="30" as="geometry">
                        <mxRectangle width="90" height="30" as="alternateBounds"/>
                    </mxGeometry>
                </mxCell>
                <mxCell id="sahK4h7Nq7HO7e_mjS17-1" value="학과" style="shape=table;startSize=30;container=1;collapsible=1;childLayout=tableLayout;fixedRows=1;rowLines=0;fontStyle=1;align=center;resizeLast=1;html=1;" vertex="1" parent="1">
                    <mxGeometry x="220" y="-584" width="100" height="90" as="geometry"/>
                </mxCell>
                <mxCell id="sahK4h7Nq7HO7e_mjS17-2" value="" style="shape=tableRow;horizontal=0;startSize=0;swimlaneHead=0;swimlaneBody=0;fillColor=none;collapsible=0;dropTarget=0;points=[[0,0.5],[1,0.5]];portConstraint=eastwest;top=0;left=0;right=0;bottom=1;" vertex="1" parent="sahK4h7Nq7HO7e_mjS17-1">
                    <mxGeometry y="30" width="100" height="30" as="geometry"/>
                </mxCell>
                <mxCell id="sahK4h7Nq7HO7e_mjS17-3" value="PK" style="shape=partialRectangle;connectable=0;fillColor=none;top=0;left=0;bottom=0;right=0;fontStyle=1;overflow=hidden;whiteSpace=wrap;html=1;" vertex="1" parent="sahK4h7Nq7HO7e_mjS17-2">
                    <mxGeometry width="30" height="30" as="geometry">
                        <mxRectangle width="30" height="30" as="alternateBounds"/>
                    </mxGeometry>
                </mxCell>
                <mxCell id="sahK4h7Nq7HO7e_mjS17-4" value="학과코드" style="shape=partialRectangle;connectable=0;fillColor=none;top=0;left=0;bottom=0;right=0;align=left;spacingLeft=6;fontStyle=5;overflow=hidden;whiteSpace=wrap;html=1;" vertex="1" parent="sahK4h7Nq7HO7e_mjS17-2">
                    <mxGeometry x="30" width="70" height="30" as="geometry">
                        <mxRectangle width="70" height="30" as="alternateBounds"/>
                    </mxGeometry>
                </mxCell>
                <mxCell id="sahK4h7Nq7HO7e_mjS17-5" value="" style="shape=tableRow;horizontal=0;startSize=0;swimlaneHead=0;swimlaneBody=0;fillColor=none;collapsible=0;dropTarget=0;points=[[0,0.5],[1,0.5]];portConstraint=eastwest;top=0;left=0;right=0;bottom=0;" vertex="1" parent="sahK4h7Nq7HO7e_mjS17-1">
                    <mxGeometry y="60" width="100" height="30" as="geometry"/>
                </mxCell>
                <mxCell id="sahK4h7Nq7HO7e_mjS17-6" value="" style="shape=partialRectangle;connectable=0;fillColor=none;top=0;left=0;bottom=0;right=0;editable=1;overflow=hidden;whiteSpace=wrap;html=1;" vertex="1" parent="sahK4h7Nq7HO7e_mjS17-5">
                    <mxGeometry width="30" height="30" as="geometry">
                        <mxRectangle width="30" height="30" as="alternateBounds"/>
                    </mxGeometry>
                </mxCell>
                <mxCell id="sahK4h7Nq7HO7e_mjS17-7" value="학과명" style="shape=partialRectangle;connectable=0;fillColor=none;top=0;left=0;bottom=0;right=0;align=left;spacingLeft=6;overflow=hidden;whiteSpace=wrap;html=1;" vertex="1" parent="sahK4h7Nq7HO7e_mjS17-5">
                    <mxGeometry x="30" width="70" height="30" as="geometry">
                        <mxRectangle width="70" height="30" as="alternateBounds"/>
                    </mxGeometry>
                </mxCell>
                <mxCell id="sahK4h7Nq7HO7e_mjS17-14" value="수강" style="shape=table;startSize=30;container=1;collapsible=1;childLayout=tableLayout;fixedRows=1;rowLines=0;fontStyle=1;align=center;resizeLast=1;html=1;" vertex="1" parent="1">
                    <mxGeometry x="630" y="-584" width="130" height="150" as="geometry"/>
                </mxCell>
                <mxCell id="sahK4h7Nq7HO7e_mjS17-15" value="" style="shape=tableRow;horizontal=0;startSize=0;swimlaneHead=0;swimlaneBody=0;fillColor=none;collapsible=0;dropTarget=0;points=[[0,0.5],[1,0.5]];portConstraint=eastwest;top=0;left=0;right=0;bottom=1;" vertex="1" parent="sahK4h7Nq7HO7e_mjS17-14">
                    <mxGeometry y="30" width="130" height="30" as="geometry"/>
                </mxCell>
                <mxCell id="sahK4h7Nq7HO7e_mjS17-16" value="PK" style="shape=partialRectangle;connectable=0;fillColor=none;top=0;left=0;bottom=0;right=0;fontStyle=1;overflow=hidden;whiteSpace=wrap;html=1;" vertex="1" parent="sahK4h7Nq7HO7e_mjS17-15">
                    <mxGeometry width="30" height="30" as="geometry">
                        <mxRectangle width="30" height="30" as="alternateBounds"/>
                    </mxGeometry>
                </mxCell>
                <mxCell id="sahK4h7Nq7HO7e_mjS17-17" value="수강번호" style="shape=partialRectangle;connectable=0;fillColor=none;top=0;left=0;bottom=0;right=0;align=left;spacingLeft=6;fontStyle=5;overflow=hidden;whiteSpace=wrap;html=1;" vertex="1" parent="sahK4h7Nq7HO7e_mjS17-15">
                    <mxGeometry x="30" width="100" height="30" as="geometry">
                        <mxRectangle width="100" height="30" as="alternateBounds"/>
                    </mxGeometry>
                </mxCell>
                <mxCell id="sahK4h7Nq7HO7e_mjS17-27" value="" style="shape=tableRow;horizontal=0;startSize=0;swimlaneHead=0;swimlaneBody=0;fillColor=none;collapsible=0;dropTarget=0;points=[[0,0.5],[1,0.5]];portConstraint=eastwest;top=0;left=0;right=0;bottom=1;" vertex="1" parent="sahK4h7Nq7HO7e_mjS17-14">
                    <mxGeometry y="60" width="130" height="30" as="geometry"/>
                </mxCell>
                <mxCell id="sahK4h7Nq7HO7e_mjS17-28" value="F&lt;span style=&quot;color: rgb(63, 63, 63); background-color: transparent;&quot;&gt;K&lt;/span&gt;" style="shape=partialRectangle;connectable=0;fillColor=none;top=0;left=0;bottom=0;right=0;fontStyle=1;overflow=hidden;whiteSpace=wrap;html=1;" vertex="1" parent="sahK4h7Nq7HO7e_mjS17-27">
                    <mxGeometry width="30" height="30" as="geometry">
                        <mxRectangle width="30" height="30" as="alternateBounds"/>
                    </mxGeometry>
                </mxCell>
                <mxCell id="sahK4h7Nq7HO7e_mjS17-29" value="학번" style="shape=partialRectangle;connectable=0;fillColor=none;top=0;left=0;bottom=0;right=0;align=left;spacingLeft=6;fontStyle=5;overflow=hidden;whiteSpace=wrap;html=1;" vertex="1" parent="sahK4h7Nq7HO7e_mjS17-27">
                    <mxGeometry x="30" width="100" height="30" as="geometry">
                        <mxRectangle width="100" height="30" as="alternateBounds"/>
                    </mxGeometry>
                </mxCell>
                <mxCell id="sahK4h7Nq7HO7e_mjS17-30" value="" style="shape=tableRow;horizontal=0;startSize=0;swimlaneHead=0;swimlaneBody=0;fillColor=none;collapsible=0;dropTarget=0;points=[[0,0.5],[1,0.5]];portConstraint=eastwest;top=0;left=0;right=0;bottom=1;" vertex="1" parent="sahK4h7Nq7HO7e_mjS17-14">
                    <mxGeometry y="90" width="130" height="30" as="geometry"/>
                </mxCell>
                <mxCell id="sahK4h7Nq7HO7e_mjS17-31" value="FK" style="shape=partialRectangle;connectable=0;fillColor=none;top=0;left=0;bottom=0;right=0;fontStyle=1;overflow=hidden;whiteSpace=wrap;html=1;" vertex="1" parent="sahK4h7Nq7HO7e_mjS17-30">
                    <mxGeometry width="30" height="30" as="geometry">
                        <mxRectangle width="30" height="30" as="alternateBounds"/>
                    </mxGeometry>
                </mxCell>
                <mxCell id="sahK4h7Nq7HO7e_mjS17-32" value="과목코드" style="shape=partialRectangle;connectable=0;fillColor=none;top=0;left=0;bottom=0;right=0;align=left;spacingLeft=6;fontStyle=5;overflow=hidden;whiteSpace=wrap;html=1;" vertex="1" parent="sahK4h7Nq7HO7e_mjS17-30">
                    <mxGeometry x="30" width="100" height="30" as="geometry">
                        <mxRectangle width="100" height="30" as="alternateBounds"/>
                    </mxGeometry>
                </mxCell>
                <mxCell id="sahK4h7Nq7HO7e_mjS17-18" value="" style="shape=tableRow;horizontal=0;startSize=0;swimlaneHead=0;swimlaneBody=0;fillColor=none;collapsible=0;dropTarget=0;points=[[0,0.5],[1,0.5]];portConstraint=eastwest;top=0;left=0;right=0;bottom=0;" vertex="1" parent="sahK4h7Nq7HO7e_mjS17-14">
                    <mxGeometry y="120" width="130" height="30" as="geometry"/>
                </mxCell>
                <mxCell id="sahK4h7Nq7HO7e_mjS17-19" value="" style="shape=partialRectangle;connectable=0;fillColor=none;top=0;left=0;bottom=0;right=0;editable=1;overflow=hidden;whiteSpace=wrap;html=1;" vertex="1" parent="sahK4h7Nq7HO7e_mjS17-18">
                    <mxGeometry width="30" height="30" as="geometry">
                        <mxRectangle width="30" height="30" as="alternateBounds"/>
                    </mxGeometry>
                </mxCell>
                <mxCell id="sahK4h7Nq7HO7e_mjS17-20" value="수강일자" style="shape=partialRectangle;connectable=0;fillColor=none;top=0;left=0;bottom=0;right=0;align=left;spacingLeft=6;overflow=hidden;whiteSpace=wrap;html=1;" vertex="1" parent="sahK4h7Nq7HO7e_mjS17-18">
                    <mxGeometry x="30" width="100" height="30" as="geometry">
                        <mxRectangle width="100" height="30" as="alternateBounds"/>
                    </mxGeometry>
                </mxCell>
            </root>
        </mxGraphModel>
    </diagram>
</mxfile>